solid OpenSCAD_Model
  facet normal 0 0 -1
    outer loop
      vertex -44 -58 9.66
      vertex -32.5 -45 9.66
      vertex -32.5 -58 9.66
    endloop
  endfacet
  facet normal -0 0 -1
    outer loop
      vertex -32.5 -45 9.66
      vertex -44 -58 9.66
      vertex -44 -45 9.66
    endloop
  endfacet
  facet normal 0 0 -1
    outer loop
      vertex -45.5 -58 9.66
      vertex -44 -45 9.66
      vertex -44 -58 9.66
    endloop
  endfacet
  facet normal -0 0 -1
    outer loop
      vertex -44 -45 9.66
      vertex -45.5 -58 9.66
      vertex -45.5 -45 9.66
    endloop
  endfacet
  facet normal 0 0 -1
    outer loop
      vertex -37.4 -66 9.66
      vertex -25.8 -59.4 9.66
      vertex -25.8 -66 9.66
    endloop
  endfacet
  facet normal -0 0 -1
    outer loop
      vertex -25.8 -59.4 9.66
      vertex -37.4 -66 9.66
      vertex -37.4 -59.4 9.66
    endloop
  endfacet
  facet normal 0 0 -1
    outer loop
      vertex -37.4 -67 9.66
      vertex -25.8 -66 9.66
      vertex -25.8 -67 9.66
    endloop
  endfacet
  facet normal -0 0 -1
    outer loop
      vertex -25.8 -66 9.66
      vertex -37.4 -67 9.66
      vertex -37.4 -66 9.66
    endloop
  endfacet
  facet normal 0 0 -1
    outer loop
      vertex -6.6 -66 9.66
      vertex 1.4 -61.2 9.66
      vertex 1.4 -66 9.66
    endloop
  endfacet
  facet normal -0 0 -1
    outer loop
      vertex 1.4 -61.2 9.66
      vertex -6.6 -66 9.66
      vertex -6.6 -61.2 9.66
    endloop
  endfacet
  facet normal 0 0 -1
    outer loop
      vertex -6.6 -67 9.66
      vertex 1.4 -66 9.66
      vertex 1.4 -67 9.66
    endloop
  endfacet
  facet normal -0 0 -1
    outer loop
      vertex 1.4 -66 9.66
      vertex -6.6 -67 9.66
      vertex -6.6 -66 9.66
    endloop
  endfacet
  facet normal 0 0 -1
    outer loop
      vertex 6 -66 9.66
      vertex 14 -61.2 9.66
      vertex 14 -66 9.66
    endloop
  endfacet
  facet normal -0 0 -1
    outer loop
      vertex 14 -61.2 9.66
      vertex 6 -66 9.66
      vertex 6 -61.2 9.66
    endloop
  endfacet
  facet normal 0 0 -1
    outer loop
      vertex 6 -67 9.66
      vertex 14 -66 9.66
      vertex 14 -67 9.66
    endloop
  endfacet
  facet normal -0 0 -1
    outer loop
      vertex 14 -66 9.66
      vertex 6 -67 9.66
      vertex 6 -66 9.66
    endloop
  endfacet
  facet normal 0 0 -1
    outer loop
      vertex -20 -56 9.66
      vertex -8 -44 9.66
      vertex -8 -56 9.66
    endloop
  endfacet
  facet normal -0 0 -1
    outer loop
      vertex -8 -44 9.66
      vertex -20 -56 9.66
      vertex -20 -44 9.66
    endloop
  endfacet
  facet normal 0 0 -1
    outer loop
      vertex -37 -41.6 9.66
      vertex 14 -36.4 9.66
      vertex 14 -41.6 9.66
    endloop
  endfacet
  facet normal -0 0 -1
    outer loop
      vertex 14 -36.4 9.66
      vertex -37 -41.6 9.66
      vertex -37 -36.4 9.66
    endloop
  endfacet
  facet normal 1 -0 0
    outer loop
      vertex -6.5 -13.5 18.06
      vertex -6.5 13.5 15.66
      vertex -6.5 13.5 18.06
    endloop
  endfacet
  facet normal 1 0 0
    outer loop
      vertex -6.5 13.5 15.66
      vertex -6.5 -13.5 18.06
      vertex -6.5 -13.5 15.66
    endloop
  endfacet
  facet normal 0 0 -1
    outer loop
      vertex -49 -10 15.66
      vertex -37 10 15.66
      vertex -37 -10 15.66
    endloop
  endfacet
  facet normal -0 0 -1
    outer loop
      vertex -37 10 15.66
      vertex -49 -10 15.66
      vertex -49 10 15.66
    endloop
  endfacet
  facet normal 0 0 -1
    outer loop
      vertex -10 -13.5 15.66
      vertex -6.5 13.5 15.66
      vertex -6.5 -13.5 15.66
    endloop
  endfacet
  facet normal -0 0 -1
    outer loop
      vertex -6.5 13.5 15.66
      vertex -10 -13.5 15.66
      vertex -10 13.5 15.66
    endloop
  endfacet
  facet normal 0 0 -1
    outer loop
      vertex -37 -10 15.66
      vertex -31 10 15.66
      vertex -31 -10 15.66
    endloop
  endfacet
  facet normal -0 0 -1
    outer loop
      vertex -31 10 15.66
      vertex -37 -10 15.66
      vertex -37 10 15.66
    endloop
  endfacet
  facet normal -0 0 1
    outer loop
      vertex -12 25.4 14.06
      vertex -6.8 -25.4 14.06
      vertex -6.8 25.4 14.06
    endloop
  endfacet
  facet normal 0 0 1
    outer loop
      vertex -6.8 -25.4 14.06
      vertex -12 25.4 14.06
      vertex -12 -25.4 14.06
    endloop
  endfacet
  facet normal 0 0 -1
    outer loop
      vertex 32.5 -13.5 10.66
      vertex 36 13.5 10.66
      vertex 36 -13.5 10.66
    endloop
  endfacet
  facet normal -0 0 -1
    outer loop
      vertex 36 13.5 10.66
      vertex 32.5 -13.5 10.66
      vertex 32.5 13.5 10.66
    endloop
  endfacet
  facet normal 0 0 -1
    outer loop
      vertex 50 -13.5 10.66
      vertex 53.5 13.5 10.66
      vertex 53.5 -13.5 10.66
    endloop
  endfacet
  facet normal -0 0 -1
    outer loop
      vertex 53.5 13.5 10.66
      vertex 50 -13.5 10.66
      vertex 50 13.5 10.66
    endloop
  endfacet
  facet normal 1 -0 0
    outer loop
      vertex 53.5 -13.5 13.06
      vertex 53.5 13.5 10.66
      vertex 53.5 13.5 13.06
    endloop
  endfacet
  facet normal 1 0 0
    outer loop
      vertex 53.5 13.5 10.66
      vertex 53.5 -13.5 13.06
      vertex 53.5 -13.5 10.66
    endloop
  endfacet
  facet normal -1 0 0
    outer loop
      vertex 32.5 -13.5 10.66
      vertex 32.5 13.5 13.06
      vertex 32.5 13.5 10.66
    endloop
  endfacet
  facet normal -1 -0 0
    outer loop
      vertex 32.5 13.5 13.06
      vertex 32.5 -13.5 10.66
      vertex 32.5 -13.5 13.06
    endloop
  endfacet
  facet normal 1 -0 0
    outer loop
      vertex -8 -56 11.36
      vertex -8 -44 9.66
      vertex -8 -44 11.36
    endloop
  endfacet
  facet normal 1 0 0
    outer loop
      vertex -8 -44 9.66
      vertex -8 -56 11.36
      vertex -8 -56 9.66
    endloop
  endfacet
  facet normal -0 0 1
    outer loop
      vertex -20 -44 11.36
      vertex -8 -56 11.36
      vertex -8 -44 11.36
    endloop
  endfacet
  facet normal 0 0 1
    outer loop
      vertex -8 -56 11.36
      vertex -20 -44 11.36
      vertex -20 -56 11.36
    endloop
  endfacet
  facet normal -1 0 0
    outer loop
      vertex -20 -56 9.66
      vertex -20 -44 11.36
      vertex -20 -44 9.66
    endloop
  endfacet
  facet normal -1 -0 0
    outer loop
      vertex -20 -44 11.36
      vertex -20 -56 9.66
      vertex -20 -56 11.36
    endloop
  endfacet
  facet normal 0 1 -0
    outer loop
      vertex -8 -44 9.66
      vertex -20 -44 11.36
      vertex -8 -44 11.36
    endloop
  endfacet
  facet normal 0 1 0
    outer loop
      vertex -20 -44 11.36
      vertex -8 -44 9.66
      vertex -20 -44 9.66
    endloop
  endfacet
  facet normal 0 -1 0
    outer loop
      vertex -20 -56 9.66
      vertex -8 -56 11.36
      vertex -20 -56 11.36
    endloop
  endfacet
  facet normal 0 -1 -0
    outer loop
      vertex -8 -56 11.36
      vertex -20 -56 9.66
      vertex -8 -56 9.66
    endloop
  endfacet
  facet normal 1 -0 0
    outer loop
      vertex 14 -41.6 12.16
      vertex 14 -36.4 9.66
      vertex 14 -36.4 12.16
    endloop
  endfacet
  facet normal 1 0 0
    outer loop
      vertex 14 -36.4 9.66
      vertex 14 -41.6 12.16
      vertex 14 -41.6 9.66
    endloop
  endfacet
  facet normal 0 0 -1
    outer loop
      vertex -12 -36.4 12.16
      vertex 11 -36.3 12.16
      vertex 11 -36.4 12.16
    endloop
  endfacet
  facet normal -0 0 -1
    outer loop
      vertex 11 -36.3 12.16
      vertex -12 -36.4 12.16
      vertex -12 -36.3 12.16
    endloop
  endfacet
  facet normal 0 0 -1
    outer loop
      vertex -12 -41.8 12.16
      vertex 11 -41.6 12.16
      vertex 11 -41.8 12.16
    endloop
  endfacet
  facet normal -0 0 -1
    outer loop
      vertex 11 -41.6 12.16
      vertex -12 -41.8 12.16
      vertex -12 -41.6 12.16
    endloop
  endfacet
  facet normal -0 0 1
    outer loop
      vertex -37 -36.4 12.16
      vertex -12 -41.6 12.16
      vertex -12 -36.4 12.16
    endloop
  endfacet
  facet normal 0 0 1
    outer loop
      vertex -12 -41.6 12.16
      vertex -37 -36.4 12.16
      vertex -37 -41.6 12.16
    endloop
  endfacet
  facet normal -0 0 1
    outer loop
      vertex 11 -36.4 12.16
      vertex 14 -41.6 12.16
      vertex 14 -36.4 12.16
    endloop
  endfacet
  facet normal 0 0 1
    outer loop
      vertex 14 -41.6 12.16
      vertex 11 -36.4 12.16
      vertex 11 -41.6 12.16
    endloop
  endfacet
  facet normal -1 0 0
    outer loop
      vertex -37 -41.6 9.66
      vertex -37 -36.4 12.16
      vertex -37 -36.4 9.66
    endloop
  endfacet
  facet normal -1 -0 0
    outer loop
      vertex -37 -36.4 12.16
      vertex -37 -41.6 9.66
      vertex -37 -41.6 12.16
    endloop
  endfacet
  facet normal 0 1 -0
    outer loop
      vertex 14 -36.4 9.66
      vertex 11 -36.4 12.16
      vertex 14 -36.4 12.16
    endloop
  endfacet
  facet normal 0 1 0
    outer loop
      vertex 11 -36.4 12.16
      vertex 14 -36.4 9.66
      vertex -12 -36.4 12.16
    endloop
  endfacet
  facet normal 0 1 0
    outer loop
      vertex -37 -36.4 9.66
      vertex -12 -36.4 12.16
      vertex 14 -36.4 9.66
    endloop
  endfacet
  facet normal 0 1 0
    outer loop
      vertex -12 -36.4 12.16
      vertex -37 -36.4 9.66
      vertex -37 -36.4 12.16
    endloop
  endfacet
  facet normal 0 -1 0
    outer loop
      vertex -37 -41.6 9.66
      vertex -12 -41.6 12.16
      vertex -37 -41.6 12.16
    endloop
  endfacet
  facet normal 0 -1 0
    outer loop
      vertex 14 -41.6 9.66
      vertex -12 -41.6 12.16
      vertex -37 -41.6 9.66
    endloop
  endfacet
  facet normal 0 -1 0
    outer loop
      vertex -12 -41.6 12.16
      vertex 14 -41.6 9.66
      vertex 11 -41.6 12.16
    endloop
  endfacet
  facet normal 0 -1 0
    outer loop
      vertex 11 -41.6 12.16
      vertex 14 -41.6 9.66
      vertex 14 -41.6 12.16
    endloop
  endfacet
  facet normal 1 -0 0
    outer loop
      vertex -6.8 -25.4 14.06
      vertex -6.8 25.4 5.56
      vertex -6.8 25.4 14.06
    endloop
  endfacet
  facet normal 1 0 0
    outer loop
      vertex -6.8 25.4 5.56
      vertex -6.8 -25.4 14.06
      vertex -6.8 -25.4 5.56
    endloop
  endfacet
  facet normal 0 0 -1
    outer loop
      vertex -12 -25.4 5.56
      vertex -6.8 25.4 5.56
      vertex -6.8 -25.4 5.56
    endloop
  endfacet
  facet normal -0 0 -1
    outer loop
      vertex -6.8 25.4 5.56
      vertex -12 -25.4 5.56
      vertex -12 25.4 5.56
    endloop
  endfacet
  facet normal -1 0 0
    outer loop
      vertex -12 -25.4 5.56
      vertex -12 25.4 14.06
      vertex -12 25.4 5.56
    endloop
  endfacet
  facet normal -1 -0 0
    outer loop
      vertex -12 25.4 14.06
      vertex -12 -25.4 5.56
      vertex -12 -25.4 14.06
    endloop
  endfacet
  facet normal 0 1 -0
    outer loop
      vertex -6.8 25.4 5.56
      vertex -12 25.4 14.06
      vertex -6.8 25.4 14.06
    endloop
  endfacet
  facet normal 0 1 0
    outer loop
      vertex -12 25.4 14.06
      vertex -6.8 25.4 5.56
      vertex -12 25.4 5.56
    endloop
  endfacet
  facet normal 0 -1 0
    outer loop
      vertex -12 -25.4 5.56
      vertex -6.8 -25.4 14.06
      vertex -12 -25.4 14.06
    endloop
  endfacet
  facet normal 0 -1 -0
    outer loop
      vertex -6.8 -25.4 14.06
      vertex -12 -25.4 5.56
      vertex -6.8 -25.4 5.56
    endloop
  endfacet
  facet normal 1 0 0
    outer loop
      vertex 1.4 -61.2 12.46
      vertex 1.4 -66 9.66
      vertex 1.4 -61.2 9.66
    endloop
  endfacet
  facet normal 1 -0 0
    outer loop
      vertex 1.4 -67 12.46
      vertex 1.4 -66 9.66
      vertex 1.4 -61.2 12.46
    endloop
  endfacet
  facet normal 1 0 0
    outer loop
      vertex 1.4 -66 9.66
      vertex 1.4 -67 12.46
      vertex 1.4 -67 9.66
    endloop
  endfacet
  facet normal -0 0 1
    outer loop
      vertex -6.6 -61.2 12.46
      vertex 1.4 -67 12.46
      vertex 1.4 -61.2 12.46
    endloop
  endfacet
  facet normal 0 0 1
    outer loop
      vertex 1.4 -67 12.46
      vertex -6.6 -61.2 12.46
      vertex -6.6 -67 12.46
    endloop
  endfacet
  facet normal -1 0 0
    outer loop
      vertex -6.6 -66 9.66
      vertex -6.6 -61.2 12.46
      vertex -6.6 -61.2 9.66
    endloop
  endfacet
  facet normal -1 0 0
    outer loop
      vertex -6.6 -67 12.46
      vertex -6.6 -66 9.66
      vertex -6.6 -67 9.66
    endloop
  endfacet
  facet normal -1 0 0
    outer loop
      vertex -6.6 -66 9.66
      vertex -6.6 -67 12.46
      vertex -6.6 -61.2 12.46
    endloop
  endfacet
  facet normal 0 1 -0
    outer loop
      vertex 1.4 -61.2 9.66
      vertex -6.6 -61.2 12.46
      vertex 1.4 -61.2 12.46
    endloop
  endfacet
  facet normal 0 1 0
    outer loop
      vertex -6.6 -61.2 12.46
      vertex 1.4 -61.2 9.66
      vertex -6.6 -61.2 9.66
    endloop
  endfacet
  facet normal 0 -1 0
    outer loop
      vertex -6.6 -67 9.66
      vertex 1.4 -67 12.46
      vertex -6.6 -67 12.46
    endloop
  endfacet
  facet normal 0 -1 -0
    outer loop
      vertex 1.4 -67 12.46
      vertex -6.6 -67 9.66
      vertex 1.4 -67 9.66
    endloop
  endfacet
  facet normal 1 0 0
    outer loop
      vertex 14 -66 9.86
      vertex 14 -61.2 12.46
      vertex 14 -66 12.46
    endloop
  endfacet
  facet normal 1 0 0
    outer loop
      vertex 14 -61.2 12.46
      vertex 14 -66 9.86
      vertex 14 -61.2 9.66
    endloop
  endfacet
  facet normal 1 0 0
    outer loop
      vertex 14 -66 9.86
      vertex 14 -66 9.66
      vertex 14 -61.2 9.66
    endloop
  endfacet
  facet normal 1 -0 0
    outer loop
      vertex 14 -67 9.86
      vertex 14 -66 9.66
      vertex 14 -66 9.86
    endloop
  endfacet
  facet normal 1 0 0
    outer loop
      vertex 14 -66 9.66
      vertex 14 -67 9.86
      vertex 14 -67 9.66
    endloop
  endfacet
  facet normal -0 0 1
    outer loop
      vertex 6 -61.2 12.46
      vertex 14 -66 12.46
      vertex 14 -61.2 12.46
    endloop
  endfacet
  facet normal 0 0 1
    outer loop
      vertex 14 -66 12.46
      vertex 6 -61.2 12.46
      vertex 6 -66 12.46
    endloop
  endfacet
  facet normal -1 0 0
    outer loop
      vertex 6 -67 9.66
      vertex 6 -66 9.86
      vertex 6 -66 9.66
    endloop
  endfacet
  facet normal -1 -0 0
    outer loop
      vertex 6 -66 9.86
      vertex 6 -67 9.66
      vertex 6 -67 9.86
    endloop
  endfacet
  facet normal -1 0 0
    outer loop
      vertex 6 -66 9.86
      vertex 6 -61.2 9.66
      vertex 6 -66 9.66
    endloop
  endfacet
  facet normal -1 0 0
    outer loop
      vertex 6 -61.2 9.66
      vertex 6 -66 9.86
      vertex 6 -61.2 12.46
    endloop
  endfacet
  facet normal -1 -0 0
    outer loop
      vertex 6 -61.2 12.46
      vertex 6 -66 9.86
      vertex 6 -66 12.46
    endloop
  endfacet
  facet normal 0 1 -0
    outer loop
      vertex 14 -61.2 9.66
      vertex 6 -61.2 12.46
      vertex 14 -61.2 12.46
    endloop
  endfacet
  facet normal 0 1 0
    outer loop
      vertex 6 -61.2 12.46
      vertex 14 -61.2 9.66
      vertex 6 -61.2 9.66
    endloop
  endfacet
  facet normal 0 -1 0
    outer loop
      vertex 6 -67 9.66
      vertex 14 -67 9.86
      vertex 6 -67 9.86
    endloop
  endfacet
  facet normal 0 -1 -0
    outer loop
      vertex 14 -67 9.86
      vertex 6 -67 9.66
      vertex 14 -67 9.66
    endloop
  endfacet
  facet normal 1 -0 0
    outer loop
      vertex -32.5 -58 11.16
      vertex -32.5 -45 9.66
      vertex -32.5 -45 11.16
    endloop
  endfacet
  facet normal 1 0 0
    outer loop
      vertex -32.5 -45 9.66
      vertex -32.5 -58 11.16
      vertex -32.5 -58 9.66
    endloop
  endfacet
  facet normal -0 0 1
    outer loop
      vertex -45.5 -45 11.16
      vertex -32.5 -58 11.16
      vertex -32.5 -45 11.16
    endloop
  endfacet
  facet normal 0 0 1
    outer loop
      vertex -32.5 -58 11.16
      vertex -45.5 -45 11.16
      vertex -45.5 -58 11.16
    endloop
  endfacet
  facet normal -1 0 0
    outer loop
      vertex -45.5 -58 9.66
      vertex -45.5 -45 11.16
      vertex -45.5 -45 9.66
    endloop
  endfacet
  facet normal -1 -0 0
    outer loop
      vertex -45.5 -45 11.16
      vertex -45.5 -58 9.66
      vertex -45.5 -58 11.16
    endloop
  endfacet
  facet normal 0 1 0
    outer loop
      vertex -44 -45 9.66
      vertex -32.5 -45 11.16
      vertex -32.5 -45 9.66
    endloop
  endfacet
  facet normal 0 1 0
    outer loop
      vertex -32.5 -45 11.16
      vertex -44 -45 9.66
      vertex -45.5 -45 11.16
    endloop
  endfacet
  facet normal 0 1 0
    outer loop
      vertex -45.5 -45 11.16
      vertex -44 -45 9.66
      vertex -45.5 -45 9.66
    endloop
  endfacet
  facet normal 0 -1 0
    outer loop
      vertex -44 -58 9.66
      vertex -45.5 -58 11.16
      vertex -45.5 -58 9.66
    endloop
  endfacet
  facet normal 0 -1 0
    outer loop
      vertex -45.5 -58 11.16
      vertex -44 -58 9.66
      vertex -32.5 -58 11.16
    endloop
  endfacet
  facet normal 0 -1 -0
    outer loop
      vertex -32.5 -58 11.16
      vertex -44 -58 9.66
      vertex -32.5 -58 9.66
    endloop
  endfacet
  facet normal 1 0 0
    outer loop
      vertex -25.8 -59.4 12.96
      vertex -25.8 -66 9.66
      vertex -25.8 -59.4 9.66
    endloop
  endfacet
  facet normal 1 -0 0
    outer loop
      vertex -25.8 -67 12.96
      vertex -25.8 -66 9.66
      vertex -25.8 -59.4 12.96
    endloop
  endfacet
  facet normal 1 0 0
    outer loop
      vertex -25.8 -66 9.66
      vertex -25.8 -67 12.96
      vertex -25.8 -67 9.66
    endloop
  endfacet
  facet normal -0 0 1
    outer loop
      vertex -37.4 -59.4 12.96
      vertex -25.8 -67 12.96
      vertex -25.8 -59.4 12.96
    endloop
  endfacet
  facet normal 0 0 1
    outer loop
      vertex -25.8 -67 12.96
      vertex -37.4 -59.4 12.96
      vertex -37.4 -67 12.96
    endloop
  endfacet
  facet normal -1 0 0
    outer loop
      vertex -37.4 -66 9.66
      vertex -37.4 -59.4 12.96
      vertex -37.4 -59.4 9.66
    endloop
  endfacet
  facet normal -1 0 0
    outer loop
      vertex -37.4 -67 12.96
      vertex -37.4 -66 9.66
      vertex -37.4 -67 9.66
    endloop
  endfacet
  facet normal -1 0 0
    outer loop
      vertex -37.4 -66 9.66
      vertex -37.4 -67 12.96
      vertex -37.4 -59.4 12.96
    endloop
  endfacet
  facet normal 0 1 -0
    outer loop
      vertex -25.8 -59.4 9.66
      vertex -37.4 -59.4 12.96
      vertex -25.8 -59.4 12.96
    endloop
  endfacet
  facet normal 0 1 0
    outer loop
      vertex -37.4 -59.4 12.96
      vertex -25.8 -59.4 9.66
      vertex -37.4 -59.4 9.66
    endloop
  endfacet
  facet normal 0 -1 0
    outer loop
      vertex -37.4 -67 9.66
      vertex -25.8 -67 12.96
      vertex -37.4 -67 12.96
    endloop
  endfacet
  facet normal 0 -1 -0
    outer loop
      vertex -25.8 -67 12.96
      vertex -37.4 -67 9.66
      vertex -25.8 -67 9.66
    endloop
  endfacet
  facet normal -0 0 1
    outer loop
      vertex -10 13.5 18.06
      vertex -6.5 -13.5 18.06
      vertex -6.5 13.5 18.06
    endloop
  endfacet
  facet normal 0 0 1
    outer loop
      vertex -6.5 -13.5 18.06
      vertex -10 13.5 18.06
      vertex -10 -13.5 18.06
    endloop
  endfacet
  facet normal -1 0 0
    outer loop
      vertex -10 -13.5 15.66
      vertex -10 13.5 18.06
      vertex -10 13.5 15.66
    endloop
  endfacet
  facet normal -1 -0 0
    outer loop
      vertex -10 13.5 18.06
      vertex -10 -13.5 15.66
      vertex -10 -13.5 18.06
    endloop
  endfacet
  facet normal 0 1 -0
    outer loop
      vertex -6.5 13.5 15.66
      vertex -10 13.5 18.06
      vertex -6.5 13.5 18.06
    endloop
  endfacet
  facet normal 0 1 0
    outer loop
      vertex -10 13.5 18.06
      vertex -6.5 13.5 15.66
      vertex -10 13.5 15.66
    endloop
  endfacet
  facet normal 0 -1 0
    outer loop
      vertex -10 -13.5 15.66
      vertex -6.5 -13.5 18.06
      vertex -10 -13.5 18.06
    endloop
  endfacet
  facet normal 0 -1 -0
    outer loop
      vertex -6.5 -13.5 18.06
      vertex -10 -13.5 15.66
      vertex -6.5 -13.5 15.66
    endloop
  endfacet
  facet normal 1 -0 0
    outer loop
      vertex -31 -10 21.46
      vertex -31 10 15.66
      vertex -31 10 21.46
    endloop
  endfacet
  facet normal 1 0 0
    outer loop
      vertex -31 10 15.66
      vertex -31 -10 21.46
      vertex -31 -10 15.66
    endloop
  endfacet
  facet normal -0 0 1
    outer loop
      vertex -37 10 21.46
      vertex -31 -10 21.46
      vertex -31 10 21.46
    endloop
  endfacet
  facet normal 0 0 1
    outer loop
      vertex -31 -10 21.46
      vertex -37 10 21.46
      vertex -37 -10 21.46
    endloop
  endfacet
  facet normal 1 -0 0
    outer loop
      vertex -37 -10 21.66
      vertex -37 10 21.46
      vertex -37 10 21.66
    endloop
  endfacet
  facet normal 1 0 0
    outer loop
      vertex -37 10 21.46
      vertex -37 -10 21.66
      vertex -37 -10 21.46
    endloop
  endfacet
  facet normal 0 1 0
    outer loop
      vertex -31 10 21.46
      vertex -31 10 15.66
      vertex -37 10 21.46
    endloop
  endfacet
  facet normal 0 1 -0
    outer loop
      vertex -37 10 21.46
      vertex -49 10 21.66
      vertex -37 10 21.66
    endloop
  endfacet
  facet normal 0 1 0
    outer loop
      vertex -37 10 15.66
      vertex -37 10 21.46
      vertex -31 10 15.66
    endloop
  endfacet
  facet normal 0 1 0
    outer loop
      vertex -49 10 15.66
      vertex -37 10 21.46
      vertex -37 10 15.66
    endloop
  endfacet
  facet normal 0 1 0
    outer loop
      vertex -37 10 21.46
      vertex -49 10 15.66
      vertex -49 10 21.66
    endloop
  endfacet
  facet normal 0 -1 0
    outer loop
      vertex -49 -10 21.66
      vertex -37 -10 21.46
      vertex -37 -10 21.66
    endloop
  endfacet
  facet normal 0 -1 0
    outer loop
      vertex -49 -10 15.66
      vertex -37 -10 21.46
      vertex -49 -10 21.66
    endloop
  endfacet
  facet normal 0 -1 0
    outer loop
      vertex -37 -10 15.66
      vertex -37 -10 21.46
      vertex -49 -10 15.66
    endloop
  endfacet
  facet normal 0 -1 0
    outer loop
      vertex -37 -10 21.46
      vertex -37 -10 15.66
      vertex -31 -10 21.46
    endloop
  endfacet
  facet normal 0 -1 -0
    outer loop
      vertex -31 -10 21.46
      vertex -37 -10 15.66
      vertex -31 -10 15.66
    endloop
  endfacet
  facet normal 1 -0 0
    outer loop
      vertex 36 -13.5 13.06
      vertex 36 13.5 10.66
      vertex 36 13.5 13.06
    endloop
  endfacet
  facet normal 1 0 0
    outer loop
      vertex 36 13.5 10.66
      vertex 36 -13.5 13.06
      vertex 36 -13.5 10.66
    endloop
  endfacet
  facet normal -0 0 1
    outer loop
      vertex 32.5 13.5 13.06
      vertex 36 -13.5 13.06
      vertex 36 13.5 13.06
    endloop
  endfacet
  facet normal 0 0 1
    outer loop
      vertex 36 -13.5 13.06
      vertex 32.5 13.5 13.06
      vertex 32.5 -13.5 13.06
    endloop
  endfacet
  facet normal 0 1 -0
    outer loop
      vertex 36 13.5 10.66
      vertex 32.5 13.5 13.06
      vertex 36 13.5 13.06
    endloop
  endfacet
  facet normal 0 1 0
    outer loop
      vertex 32.5 13.5 13.06
      vertex 36 13.5 10.66
      vertex 32.5 13.5 10.66
    endloop
  endfacet
  facet normal 0 -1 0
    outer loop
      vertex 32.5 -13.5 10.66
      vertex 36 -13.5 13.06
      vertex 32.5 -13.5 13.06
    endloop
  endfacet
  facet normal 0 -1 -0
    outer loop
      vertex 36 -13.5 13.06
      vertex 32.5 -13.5 10.66
      vertex 36 -13.5 10.66
    endloop
  endfacet
  facet normal -0 0 1
    outer loop
      vertex 50 13.5 13.06
      vertex 53.5 -13.5 13.06
      vertex 53.5 13.5 13.06
    endloop
  endfacet
  facet normal 0 0 1
    outer loop
      vertex 53.5 -13.5 13.06
      vertex 50 13.5 13.06
      vertex 50 -13.5 13.06
    endloop
  endfacet
  facet normal -1 0 0
    outer loop
      vertex 50 -13.5 10.66
      vertex 50 13.5 13.06
      vertex 50 13.5 10.66
    endloop
  endfacet
  facet normal -1 -0 0
    outer loop
      vertex 50 13.5 13.06
      vertex 50 -13.5 10.66
      vertex 50 -13.5 13.06
    endloop
  endfacet
  facet normal 0 1 -0
    outer loop
      vertex 53.5 13.5 10.66
      vertex 50 13.5 13.06
      vertex 53.5 13.5 13.06
    endloop
  endfacet
  facet normal 0 1 0
    outer loop
      vertex 50 13.5 13.06
      vertex 53.5 13.5 10.66
      vertex 50 13.5 10.66
    endloop
  endfacet
  facet normal 0 -1 0
    outer loop
      vertex 50 -13.5 10.66
      vertex 53.5 -13.5 13.06
      vertex 50 -13.5 13.06
    endloop
  endfacet
  facet normal 0 -1 -0
    outer loop
      vertex 53.5 -13.5 13.06
      vertex 50 -13.5 10.66
      vertex 53.5 -13.5 10.66
    endloop
  endfacet
  facet normal 1 -0 0
    outer loop
      vertex 14.8 -80 15.46
      vertex 14.8 -66 9.86
      vertex 14.8 -66 15.46
    endloop
  endfacet
  facet normal 1 0 0
    outer loop
      vertex 14.8 -66 9.86
      vertex 14.8 -80 15.46
      vertex 14.8 -80 9.86
    endloop
  endfacet
  facet normal -0 0 1
    outer loop
      vertex 5.2 -66 15.46
      vertex 14.8 -80 15.46
      vertex 14.8 -66 15.46
    endloop
  endfacet
  facet normal 0 0 1
    outer loop
      vertex 14.8 -80 15.46
      vertex 5.2 -66 15.46
      vertex 5.2 -80 15.46
    endloop
  endfacet
  facet normal 0 0 -1
    outer loop
      vertex 14.8 -80 9.86
      vertex 14 -67 9.86
      vertex 14.8 -66 9.86
    endloop
  endfacet
  facet normal 0 0 -1
    outer loop
      vertex 14.8 -80 9.86
      vertex 6 -67 9.86
      vertex 14 -67 9.86
    endloop
  endfacet
  facet normal 0 0 -1
    outer loop
      vertex 5.2 -80 9.86
      vertex 6 -67 9.86
      vertex 14.8 -80 9.86
    endloop
  endfacet
  facet normal 0 0 -1
    outer loop
      vertex 5.2 -66 9.86
      vertex 6 -67 9.86
      vertex 5.2 -80 9.86
    endloop
  endfacet
  facet normal 0 0 -1
    outer loop
      vertex 6 -67 9.86
      vertex 5.2 -66 9.86
      vertex 6 -66 9.86
    endloop
  endfacet
  facet normal -0 0 -1
    outer loop
      vertex 14.8 -66 9.86
      vertex 14 -67 9.86
      vertex 14 -66 9.86
    endloop
  endfacet
  facet normal -1 0 0
    outer loop
      vertex 5.2 -80 9.86
      vertex 5.2 -66 15.46
      vertex 5.2 -66 9.86
    endloop
  endfacet
  facet normal -1 -0 0
    outer loop
      vertex 5.2 -66 15.46
      vertex 5.2 -80 9.86
      vertex 5.2 -80 15.46
    endloop
  endfacet
  facet normal 0 1 0
    outer loop
      vertex 14.8 -66 15.46
      vertex 14 -66 12.46
      vertex 5.2 -66 15.46
    endloop
  endfacet
  facet normal 0 1 -0
    outer loop
      vertex 14.8 -66 9.86
      vertex 14 -66 12.46
      vertex 14.8 -66 15.46
    endloop
  endfacet
  facet normal 0 1 0
    outer loop
      vertex 14 -66 12.46
      vertex 14.8 -66 9.86
      vertex 14 -66 9.86
    endloop
  endfacet
  facet normal 0 1 -0
    outer loop
      vertex 6 -66 12.46
      vertex 5.2 -66 15.46
      vertex 14 -66 12.46
    endloop
  endfacet
  facet normal 0 1 0
    outer loop
      vertex 5.2 -66 9.86
      vertex 6 -66 12.46
      vertex 6 -66 9.86
    endloop
  endfacet
  facet normal 0 1 0
    outer loop
      vertex 6 -66 12.46
      vertex 5.2 -66 9.86
      vertex 5.2 -66 15.46
    endloop
  endfacet
  facet normal 0 -1 0
    outer loop
      vertex 5.2 -80 9.86
      vertex 14.8 -80 15.46
      vertex 5.2 -80 15.46
    endloop
  endfacet
  facet normal 0 -1 -0
    outer loop
      vertex 14.8 -80 15.46
      vertex 5.2 -80 9.86
      vertex 14.8 -80 9.86
    endloop
  endfacet
  facet normal -0 0 1
    outer loop
      vertex -49 10 21.66
      vertex -37 -10 21.66
      vertex -37 10 21.66
    endloop
  endfacet
  facet normal 0 0 1
    outer loop
      vertex -37 -10 21.66
      vertex -49 10 21.66
      vertex -49 -10 21.66
    endloop
  endfacet
  facet normal -1 0 0
    outer loop
      vertex -49 -10 15.66
      vertex -49 10 21.66
      vertex -49 10 15.66
    endloop
  endfacet
  facet normal -1 -0 0
    outer loop
      vertex -49 10 21.66
      vertex -49 -10 15.66
      vertex -49 -10 21.66
    endloop
  endfacet
  facet normal 1 0 0
    outer loop
      vertex 11 -36.3 26.16
      vertex 11 -36.4 12.16
      vertex 11 -36.3 12.16
    endloop
  endfacet
  facet normal 1 0 0
    outer loop
      vertex 11 -36.3 26.16
      vertex 11 -41.6 12.16
      vertex 11 -36.4 12.16
    endloop
  endfacet
  facet normal 1 -0 0
    outer loop
      vertex 11 -41.8 26.16
      vertex 11 -41.6 12.16
      vertex 11 -36.3 26.16
    endloop
  endfacet
  facet normal 1 0 0
    outer loop
      vertex 11 -41.6 12.16
      vertex 11 -41.8 26.16
      vertex 11 -41.8 12.16
    endloop
  endfacet
  facet normal -0 0 1
    outer loop
      vertex -12 -36.3 26.16
      vertex 11 -41.8 26.16
      vertex 11 -36.3 26.16
    endloop
  endfacet
  facet normal 0 0 1
    outer loop
      vertex 11 -41.8 26.16
      vertex -12 -36.3 26.16
      vertex -12 -41.8 26.16
    endloop
  endfacet
  facet normal -1 0 0
    outer loop
      vertex -12 -36.4 12.16
      vertex -12 -36.3 26.16
      vertex -12 -36.3 12.16
    endloop
  endfacet
  facet normal -1 0 0
    outer loop
      vertex -12 -41.6 12.16
      vertex -12 -36.3 26.16
      vertex -12 -36.4 12.16
    endloop
  endfacet
  facet normal -1 0 0
    outer loop
      vertex -12 -41.8 26.16
      vertex -12 -41.6 12.16
      vertex -12 -41.8 12.16
    endloop
  endfacet
  facet normal -1 0 0
    outer loop
      vertex -12 -41.6 12.16
      vertex -12 -41.8 26.16
      vertex -12 -36.3 26.16
    endloop
  endfacet
  facet normal 0 1 -0
    outer loop
      vertex 11 -36.3 12.16
      vertex -12 -36.3 26.16
      vertex 11 -36.3 26.16
    endloop
  endfacet
  facet normal 0 1 0
    outer loop
      vertex -12 -36.3 26.16
      vertex 11 -36.3 12.16
      vertex -12 -36.3 12.16
    endloop
  endfacet
  facet normal 0 -1 0
    outer loop
      vertex -12 -41.8 12.16
      vertex 11 -41.8 26.16
      vertex -12 -41.8 26.16
    endloop
  endfacet
  facet normal 0 -1 -0
    outer loop
      vertex 11 -41.8 26.16
      vertex -12 -41.8 12.16
      vertex 11 -41.8 12.16
    endloop
  endfacet
endsolid OpenSCAD_Model
