solid OpenSCAD_Model
  facet normal -0 0 1
    outer loop
      vertex -52.7 85.1 2.71
      vertex 58.5 -85.1 2.71
      vertex 58.5 85.1 2.71
    endloop
  endfacet
  facet normal 0 0 1
    outer loop
      vertex 58.5 -85.1 2.71
      vertex -52.7 85.1 2.71
      vertex -52.7 -85.1 2.71
    endloop
  endfacet
  facet normal 0 0 -1
    outer loop
      vertex -52.7 -85.1 1.8
      vertex 58.5 85.1 1.8
      vertex 58.5 -85.1 1.8
    endloop
  endfacet
  facet normal -0 0 -1
    outer loop
      vertex 58.5 85.1 1.8
      vertex -52.7 -85.1 1.8
      vertex -52.7 85.1 1.8
    endloop
  endfacet
  facet normal 0 -1 0
    outer loop
      vertex -52.7 -85.1 1.8
      vertex 58.5 -85.1 2.71
      vertex -52.7 -85.1 2.71
    endloop
  endfacet
  facet normal 0 -1 -0
    outer loop
      vertex 58.5 -85.1 2.71
      vertex -52.7 -85.1 1.8
      vertex 58.5 -85.1 1.8
    endloop
  endfacet
  facet normal 1 -0 0
    outer loop
      vertex 58.5 -85.1 2.71
      vertex 58.5 85.1 1.8
      vertex 58.5 85.1 2.71
    endloop
  endfacet
  facet normal 1 0 0
    outer loop
      vertex 58.5 85.1 1.8
      vertex 58.5 -85.1 2.71
      vertex 58.5 -85.1 1.8
    endloop
  endfacet
  facet normal 0 1 -0
    outer loop
      vertex 58.5 85.1 1.8
      vertex -52.7 85.1 2.71
      vertex 58.5 85.1 2.71
    endloop
  endfacet
  facet normal 0 1 0
    outer loop
      vertex -52.7 85.1 2.71
      vertex 58.5 85.1 1.8
      vertex -52.7 85.1 1.8
    endloop
  endfacet
  facet normal -1 0 0
    outer loop
      vertex -52.7 -85.1 1.8
      vertex -52.7 85.1 2.71
      vertex -52.7 85.1 1.8
    endloop
  endfacet
  facet normal -1 -0 0
    outer loop
      vertex -52.7 85.1 2.71
      vertex -52.7 -85.1 1.8
      vertex -52.7 -85.1 2.71
    endloop
  endfacet
endsolid OpenSCAD_Model
