solid OpenSCAD_Model
  facet normal 0.13931 0.700233 -0.70019
    outer loop
      vertex 10.3614 -14.7302 0.38912
      vertex 10 -14.6583 0.38912
      vertex 10 -14.1893 0.858149
    endloop
  endfacet
  facet normal 0.139295 0.700229 -0.700197
    outer loop
      vertex 10.3614 -14.7302 0.38912
      vertex 10 -14.1893 0.858149
      vertex 10.5409 -14.2969 0.858149
    endloop
  endfacet
  facet normal 0.0759164 0.381588 -0.92121
    outer loop
      vertex 10.3614 -14.7302 0.38912
      vertex 10 -15.2711 0.135283
      vertex 10 -14.6583 0.38912
    endloop
  endfacet
  facet normal -0.381569 0.0758811 0.92122
    outer loop
      vertex 9.12742 -15.2413 3.21612
      vertex 9.05553 -15.6028 3.21612
      vertex 9.66835 -15.6028 3.46995
    endloop
  endfacet
  facet normal -0.0759101 0.381588 -0.92121
    outer loop
      vertex 10 -15.2711 0.135283
      vertex 9.63857 -14.7302 0.38912
      vertex 10 -14.6583 0.38912
    endloop
  endfacet
  facet normal 0.514769 0.770231 0.376508
    outer loop
      vertex 10.6381 -14.0623 2.13427
      vertex 10.5409 -14.2969 2.74709
      vertex 11.179 -14.4238 2.13427
    endloop
  endfacet
  facet normal -0.700218 0.139249 0.700218
    outer loop
      vertex 9.12742 -15.2413 3.21612
      vertex 8.5865 -15.6028 2.74709
      vertex 9.05553 -15.6028 3.21612
    endloop
  endfacet
  facet normal -0.180745 0.908629 -0.376463
    outer loop
      vertex 10 -14.1893 0.858149
      vertex 9.45908 -14.2969 0.858149
      vertex 10 -13.9354 1.47096
    endloop
  endfacet
  facet normal -0.593587 0.396687 -0.70021
    outer loop
      vertex 9.12742 -15.2413 0.38912
      vertex 8.6941 -15.0618 0.858149
      vertex 9.00051 -14.6033 0.858149
    endloop
  endfacet
  facet normal 0.908684 0.180729 -0.376338
    outer loop
      vertex 11.4135 -15.6028 0.858149
      vertex 11.3059 -15.0618 0.858149
      vertex 11.6673 -15.6028 1.47096
    endloop
  endfacet
  facet normal 0.216114 0.323485 -0.921223
    outer loop
      vertex 10.6678 -14.9349 0.38912
      vertex 10.2345 -15.3683 0.135283
      vertex 10.3614 -14.7302 0.38912
    endloop
  endfacet
  facet normal -0.593624 0.396666 -0.700191
    outer loop
      vertex 9.12742 -15.2413 0.38912
      vertex 9.00051 -14.6033 0.858149
      vertex 9.33216 -14.9349 0.38912
    endloop
  endfacet
  facet normal -0.216144 0.323465 0.921223
    outer loop
      vertex 9.87308 -15.2964 3.46995
      vertex 9.63857 -14.7302 3.21612
      vertex 9.76548 -15.3683 3.46995
    endloop
  endfacet
  facet normal -0.908665 0.180736 -0.37638
    outer loop
      vertex 8.6941 -15.0618 0.858149
      vertex 8.33266 -15.6028 1.47096
      vertex 8.45958 -14.9647 1.47096
    endloop
  endfacet
  facet normal 0.593604 0.396685 0.700197
    outer loop
      vertex 10.9995 -14.6033 2.74709
      vertex 10.8726 -15.2413 3.21612
      vertex 11.3059 -15.0618 2.74709
    endloop
  endfacet
  facet normal -0.323458 0.216138 0.921227
    outer loop
      vertex 9.33216 -14.9349 3.21612
      vertex 9.12742 -15.2413 3.21612
      vertex 9.76548 -15.3683 3.46995
    endloop
  endfacet
  facet normal -0.323465 0.216143 -0.921223
    outer loop
      vertex 9.76548 -15.3683 0.135283
      vertex 9.12742 -15.2413 0.38912
      vertex 9.33216 -14.9349 0.38912
    endloop
  endfacet
  facet normal -0.396613 0.59368 -0.700173
    outer loop
      vertex 9.33216 -14.9349 0.38912
      vertex 9.00051 -14.6033 0.858149
      vertex 9.63857 -14.7302 0.38912
    endloop
  endfacet
  facet normal -0.216106 0.323484 -0.921225
    outer loop
      vertex 9.76548 -15.3683 0.135283
      vertex 9.33216 -14.9349 0.38912
      vertex 9.63857 -14.7302 0.38912
    endloop
  endfacet
  facet normal 0.707129 0 -0.707085
    outer loop
      vertex 10.9445 -15.6028 0.38912
      vertex 11.4135 -100.415 0.858149
      vertex 10.9445 -100.609 0.38912
    endloop
  endfacet
  facet normal 0.707129 0 -0.707085
    outer loop
      vertex 11.4135 -100.415 0.858149
      vertex 10.9445 -15.6028 0.38912
      vertex 11.4135 -15.6028 0.858149
    endloop
  endfacet
  facet normal 0.38158 0.0758937 0.921215
    outer loop
      vertex 10.8726 -15.2413 3.21612
      vertex 10.3317 -15.6028 3.46995
      vertex 10.9445 -15.6028 3.21612
    endloop
  endfacet
  facet normal 0.831482 0.555551 0
    outer loop
      vertex 11.5404 -14.9647 2.13427
      vertex 11.179 -14.4238 1.47096
      vertex 11.179 -14.4238 2.13427
    endloop
  endfacet
  facet normal 0.831482 0.555551 0
    outer loop
      vertex 11.179 -14.4238 1.47096
      vertex 11.5404 -14.9647 2.13427
      vertex 11.5404 -14.9647 1.47096
    endloop
  endfacet
  facet normal -0.381578 0.0758829 -0.921216
    outer loop
      vertex 9.66835 -15.6028 0.135283
      vertex 9.05553 -15.6028 0.38912
      vertex 9.12742 -15.2413 0.38912
    endloop
  endfacet
  facet normal 0.180699 0.908621 -0.376505
    outer loop
      vertex 10.5409 -14.2969 0.858149
      vertex 10 -13.9354 1.47096
      vertex 10.6381 -14.0623 1.47096
    endloop
  endfacet
  facet normal -0.180745 0.908631 0.376459
    outer loop
      vertex 10 -13.9354 2.13427
      vertex 9.45908 -14.2969 2.74709
      vertex 10 -14.1893 2.74709
    endloop
  endfacet
  facet normal 0.908686 0.180729 0.376333
    outer loop
      vertex 11.6673 -15.6028 2.13427
      vertex 11.3059 -15.0618 2.74709
      vertex 11.4135 -15.6028 2.74709
    endloop
  endfacet
  facet normal -0.381604 0.07584 -0.921209
    outer loop
      vertex 9.66835 -15.6028 0.135283
      vertex 9.12742 -15.2413 0.38912
      vertex 9.69359 -15.4758 0.135283
    endloop
  endfacet
  facet normal 0.593536 0.396724 -0.700233
    outer loop
      vertex 10.8726 -15.2413 0.38912
      vertex 10.6678 -14.9349 0.38912
      vertex 10.9995 -14.6033 0.858149
    endloop
  endfacet
  facet normal -1 0 0
    outer loop
      vertex 8.33266 -101 1.47096
      vertex 8.33266 -15.6028 2.13427
      vertex 8.33266 -15.6028 1.47096
    endloop
  endfacet
  facet normal -1 -0 0
    outer loop
      vertex 8.33266 -15.6028 2.13427
      vertex 8.33266 -101 1.47096
      vertex 8.33266 -101 2.13427
    endloop
  endfacet
  facet normal -0.382682 0 -0.92388
    outer loop
      vertex 9.05553 -101 0.38912
      vertex 9.66835 -15.6028 0.135283
      vertex 9.66835 -101 0.135283
    endloop
  endfacet
  facet normal -0.382682 0 -0.92388
    outer loop
      vertex 9.66835 -15.6028 0.135283
      vertex 9.05553 -101 0.38912
      vertex 9.05553 -15.6028 0.38912
    endloop
  endfacet
  facet normal 0.700237 0.139273 -0.700194
    outer loop
      vertex 10.9445 -15.6028 0.38912
      vertex 10.8726 -15.2413 0.38912
      vertex 11.4135 -15.6028 0.858149
    endloop
  endfacet
  facet normal 0.707129 0 0.707084
    outer loop
      vertex 10.9445 -15.6028 3.21612
      vertex 11.4135 -100.415 2.74709
      vertex 11.4135 -15.6028 2.74709
    endloop
  endfacet
  facet normal 0.707129 0 0.707084
    outer loop
      vertex 11.4135 -100.415 2.74709
      vertex 10.9445 -15.6028 3.21612
      vertex 10.9445 -100.609 3.21612
    endloop
  endfacet
  facet normal -0.707107 0 0.707107
    outer loop
      vertex 8.5865 -101 2.74709
      vertex 9.05553 -15.6028 3.21612
      vertex 8.5865 -15.6028 2.74709
    endloop
  endfacet
  facet normal -0.707107 0 0.707107
    outer loop
      vertex 9.05553 -15.6028 3.21612
      vertex 8.5865 -101 2.74709
      vertex 9.05553 -101 3.21612
    endloop
  endfacet
  facet normal -0.0759083 0.381579 0.921214
    outer loop
      vertex 10 -14.6583 3.21612
      vertex 9.63857 -14.7302 3.21612
      vertex 10 -15.2711 3.46995
    endloop
  endfacet
  facet normal 0.139311 0.700234 0.700189
    outer loop
      vertex 10 -14.1893 2.74709
      vertex 10 -14.6583 3.21612
      vertex 10.3614 -14.7302 3.21612
    endloop
  endfacet
  facet normal 0.396621 0.593638 0.700204
    outer loop
      vertex 10.5409 -14.2969 2.74709
      vertex 10.3614 -14.7302 3.21612
      vertex 10.9995 -14.6033 2.74709
    endloop
  endfacet
  facet normal 0.514682 0.770344 0.376395
    outer loop
      vertex 11.179 -14.4238 2.13427
      vertex 10.5409 -14.2969 2.74709
      vertex 10.9995 -14.6033 2.74709
    endloop
  endfacet
  facet normal 0.180751 0.908628 -0.376463
    outer loop
      vertex 10.5409 -14.2969 0.858149
      vertex 10 -14.1893 0.858149
      vertex 10 -13.9354 1.47096
    endloop
  endfacet
  facet normal -0.195064 0.980791 0
    outer loop
      vertex 10 -13.9354 1.47096
      vertex 9.36194 -14.0623 2.13427
      vertex 10 -13.9354 2.13427
    endloop
  endfacet
  facet normal -0.195064 0.980791 0
    outer loop
      vertex 9.36194 -14.0623 2.13427
      vertex 10 -13.9354 1.47096
      vertex 9.36194 -14.0623 1.47096
    endloop
  endfacet
  facet normal 0.0759146 0.381579 0.921214
    outer loop
      vertex 10 -14.6583 3.21612
      vertex 10 -15.2711 3.46995
      vertex 10.3614 -14.7302 3.21612
    endloop
  endfacet
  facet normal 0.770288 0.514757 -0.376406
    outer loop
      vertex 11.3059 -15.0618 0.858149
      vertex 10.9995 -14.6033 0.858149
      vertex 11.179 -14.4238 1.47096
    endloop
  endfacet
  facet normal 0.323436 0.216187 -0.921223
    outer loop
      vertex 10.8726 -15.2413 0.38912
      vertex 10.2345 -15.3683 0.135283
      vertex 10.6678 -14.9349 0.38912
    endloop
  endfacet
  facet normal -0.514707 0.77033 0.376389
    outer loop
      vertex 9.45908 -14.2969 2.74709
      vertex 8.82102 -14.4238 2.13427
      vertex 9.00051 -14.6033 2.74709
    endloop
  endfacet
  facet normal -0.396642 0.59363 -0.700198
    outer loop
      vertex 9.63857 -14.7302 0.38912
      vertex 9.00051 -14.6033 0.858149
      vertex 9.45908 -14.2969 0.858149
    endloop
  endfacet
  facet normal 0.9239 0 0.382634
    outer loop
      vertex 11.4135 -15.6028 2.74709
      vertex 11.6673 -100.309 2.13427
      vertex 11.6673 -15.6028 2.13427
    endloop
  endfacet
  facet normal 0.9239 0 0.382634
    outer loop
      vertex 11.6673 -100.309 2.13427
      vertex 11.4135 -15.6028 2.74709
      vertex 11.4135 -100.415 2.74709
    endloop
  endfacet
  facet normal 0.980793 0.195052 0
    outer loop
      vertex 11.6673 -15.6028 2.13427
      vertex 11.5404 -14.9647 1.47096
      vertex 11.5404 -14.9647 2.13427
    endloop
  endfacet
  facet normal 0.980793 0.195052 0
    outer loop
      vertex 11.5404 -14.9647 1.47096
      vertex 11.6673 -15.6028 2.13427
      vertex 11.6673 -15.6028 1.47096
    endloop
  endfacet
  facet normal -0.139291 0.700233 0.700194
    outer loop
      vertex 10 -14.1893 2.74709
      vertex 9.45908 -14.2969 2.74709
      vertex 9.63857 -14.7302 3.21612
    endloop
  endfacet
  facet normal -0.139299 0.700235 0.70019
    outer loop
      vertex 10 -14.1893 2.74709
      vertex 9.63857 -14.7302 3.21612
      vertex 10 -14.6583 3.21612
    endloop
  endfacet
  facet normal 0.381515 0.0760026 0.921233
    outer loop
      vertex 10.8726 -15.2413 3.21612
      vertex 10.3064 -15.4758 3.46995
      vertex 10.3317 -15.6028 3.46995
    endloop
  endfacet
  facet normal 0.396611 0.593656 0.700194
    outer loop
      vertex 10.9995 -14.6033 2.74709
      vertex 10.3614 -14.7302 3.21612
      vertex 10.6678 -14.9349 3.21612
    endloop
  endfacet
  facet normal -0.32342 0.216285 0.921206
    outer loop
      vertex 9.76548 -15.3683 3.46995
      vertex 9.12742 -15.2413 3.21612
      vertex 9.69359 -15.4758 3.46995
    endloop
  endfacet
  facet normal -0.381595 0.0758382 0.921213
    outer loop
      vertex 9.69359 -15.4758 3.46995
      vertex 9.12742 -15.2413 3.21612
      vertex 9.66835 -15.6028 3.46995
    endloop
  endfacet
  facet normal 0.514768 0.770229 -0.376513
    outer loop
      vertex 11.179 -14.4238 1.47096
      vertex 10.5409 -14.2969 0.858149
      vertex 10.6381 -14.0623 1.47096
    endloop
  endfacet
  facet normal 0.180699 0.908623 0.3765
    outer loop
      vertex 10.6381 -14.0623 2.13427
      vertex 10 -13.9354 2.13427
      vertex 10.5409 -14.2969 2.74709
    endloop
  endfacet
  facet normal -0.555643 0.831421 0
    outer loop
      vertex 9.36194 -14.0623 1.47096
      vertex 8.82102 -14.4238 2.13427
      vertex 9.36194 -14.0623 2.13427
    endloop
  endfacet
  facet normal -0.555643 0.831421 0
    outer loop
      vertex 8.82102 -14.4238 2.13427
      vertex 9.36194 -14.0623 1.47096
      vertex 8.82102 -14.4238 1.47096
    endloop
  endfacet
  facet normal -0.180711 0.908624 -0.376491
    outer loop
      vertex 9.45908 -14.2969 0.858149
      vertex 9.36194 -14.0623 1.47096
      vertex 10 -13.9354 1.47096
    endloop
  endfacet
  facet normal 0.382692 0 -0.923876
    outer loop
      vertex 10.3317 -15.6028 0.135283
      vertex 10.9445 -100.609 0.38912
      vertex 10.3317 -100.863 0.135283
    endloop
  endfacet
  facet normal 0.382692 0 -0.923876
    outer loop
      vertex 10.9445 -100.609 0.38912
      vertex 10.3317 -15.6028 0.135283
      vertex 10.9445 -15.6028 0.38912
    endloop
  endfacet
  facet normal 0.381589 0.0758955 -0.921211
    outer loop
      vertex 10.9445 -15.6028 0.38912
      vertex 10.3317 -15.6028 0.135283
      vertex 10.8726 -15.2413 0.38912
    endloop
  endfacet
  facet normal -0.908667 0.180737 0.376375
    outer loop
      vertex 8.45958 -14.9647 2.13427
      vertex 8.33266 -15.6028 2.13427
      vertex 8.6941 -15.0618 2.74709
    endloop
  endfacet
  facet normal -0.770322 0.514744 0.376354
    outer loop
      vertex 8.82102 -14.4238 2.13427
      vertex 8.45958 -14.9647 2.13427
      vertex 8.6941 -15.0618 2.74709
    endloop
  endfacet
  facet normal -0.908666 0.180725 0.376384
    outer loop
      vertex 8.6941 -15.0618 2.74709
      vertex 8.33266 -15.6028 2.13427
      vertex 8.5865 -15.6028 2.74709
    endloop
  endfacet
  facet normal -0.700223 0.139268 0.700209
    outer loop
      vertex 8.6941 -15.0618 2.74709
      vertex 8.5865 -15.6028 2.74709
      vertex 9.12742 -15.2413 3.21612
    endloop
  endfacet
  facet normal -0.707106 0 -0.707108
    outer loop
      vertex 8.5865 -101 0.858149
      vertex 9.05553 -15.6028 0.38912
      vertex 9.05553 -101 0.38912
    endloop
  endfacet
  facet normal -0.707106 0 -0.707108
    outer loop
      vertex 9.05553 -15.6028 0.38912
      vertex 8.5865 -101 0.858149
      vertex 8.5865 -15.6028 0.858149
    endloop
  endfacet
  facet normal -0.923877 0 -0.38269
    outer loop
      vertex 8.5865 -101 0.858149
      vertex 8.33266 -15.6028 1.47096
      vertex 8.5865 -15.6028 0.858149
    endloop
  endfacet
  facet normal -0.923877 -0 -0.38269
    outer loop
      vertex 8.33266 -15.6028 1.47096
      vertex 8.5865 -101 0.858149
      vertex 8.33266 -101 1.47096
    endloop
  endfacet
  facet normal 0.323398 0.216301 0.92121
    outer loop
      vertex 10.8726 -15.2413 3.21612
      vertex 10.2345 -15.3683 3.46995
      vertex 10.3064 -15.4758 3.46995
    endloop
  endfacet
  facet normal 0.770354 0.514709 0.376336
    outer loop
      vertex 11.5404 -14.9647 2.13427
      vertex 11.179 -14.4238 2.13427
      vertex 11.3059 -15.0618 2.74709
    endloop
  endfacet
  facet normal 0.77029 0.514758 0.376401
    outer loop
      vertex 11.179 -14.4238 2.13427
      vertex 10.9995 -14.6033 2.74709
      vertex 11.3059 -15.0618 2.74709
    endloop
  endfacet
  facet normal 0.700238 0.139273 0.700193
    outer loop
      vertex 11.4135 -15.6028 2.74709
      vertex 10.8726 -15.2413 3.21612
      vertex 10.9445 -15.6028 3.21612
    endloop
  endfacet
  facet normal 0.700237 0.139271 0.700194
    outer loop
      vertex 11.3059 -15.0618 2.74709
      vertex 10.8726 -15.2413 3.21612
      vertex 11.4135 -15.6028 2.74709
    endloop
  endfacet
  facet normal 0.323429 0.216182 0.921227
    outer loop
      vertex 10.6678 -14.9349 3.21612
      vertex 10.2345 -15.3683 3.46995
      vertex 10.8726 -15.2413 3.21612
    endloop
  endfacet
  facet normal 0.555658 0.831411 -0
    outer loop
      vertex 11.179 -14.4238 1.47096
      vertex 10.6381 -14.0623 2.13427
      vertex 11.179 -14.4238 2.13427
    endloop
  endfacet
  facet normal 0.555658 0.831411 0
    outer loop
      vertex 10.6381 -14.0623 2.13427
      vertex 11.179 -14.4238 1.47096
      vertex 10.6381 -14.0623 1.47096
    endloop
  endfacet
  facet normal 0.908684 0.180711 0.376348
    outer loop
      vertex 11.5404 -14.9647 2.13427
      vertex 11.3059 -15.0618 2.74709
      vertex 11.6673 -15.6028 2.13427
    endloop
  endfacet
  facet normal 0.908682 0.180711 -0.376352
    outer loop
      vertex 11.6673 -15.6028 1.47096
      vertex 11.3059 -15.0618 0.858149
      vertex 11.5404 -14.9647 1.47096
    endloop
  endfacet
  facet normal -0.593624 0.396667 0.70019
    outer loop
      vertex 9.33216 -14.9349 3.21612
      vertex 9.00051 -14.6033 2.74709
      vertex 9.12742 -15.2413 3.21612
    endloop
  endfacet
  facet normal -0.216101 0.323476 0.921229
    outer loop
      vertex 9.63857 -14.7302 3.21612
      vertex 9.33216 -14.9349 3.21612
      vertex 9.76548 -15.3683 3.46995
    endloop
  endfacet
  facet normal 0.139295 0.70023 0.700196
    outer loop
      vertex 10.5409 -14.2969 2.74709
      vertex 10 -14.1893 2.74709
      vertex 10.3614 -14.7302 3.21612
    endloop
  endfacet
  facet normal 0.180752 0.90863 0.376458
    outer loop
      vertex 10 -13.9354 2.13427
      vertex 10 -14.1893 2.74709
      vertex 10.5409 -14.2969 2.74709
    endloop
  endfacet
  facet normal -0.514765 0.770254 0.376466
    outer loop
      vertex 9.36194 -14.0623 2.13427
      vertex 8.82102 -14.4238 2.13427
      vertex 9.45908 -14.2969 2.74709
    endloop
  endfacet
  facet normal -0.180711 0.908626 0.376486
    outer loop
      vertex 10 -13.9354 2.13427
      vertex 9.36194 -14.0623 2.13427
      vertex 9.45908 -14.2969 2.74709
    endloop
  endfacet
  facet normal -0.514764 0.770252 -0.376471
    outer loop
      vertex 9.45908 -14.2969 0.858149
      vertex 8.82102 -14.4238 1.47096
      vertex 9.36194 -14.0623 1.47096
    endloop
  endfacet
  facet normal 0.216151 0.323475 -0.921218
    outer loop
      vertex 10.2345 -15.3683 0.135283
      vertex 10.1269 -15.2964 0.135283
      vertex 10.3614 -14.7302 0.38912
    endloop
  endfacet
  facet normal -0.382673 0 0.923884
    outer loop
      vertex 9.05553 -15.6028 3.21612
      vertex 9.66835 -101 3.46995
      vertex 9.66835 -15.6028 3.46995
    endloop
  endfacet
  facet normal -0.382673 0 0.923884
    outer loop
      vertex 9.66835 -101 3.46995
      vertex 9.05553 -15.6028 3.21612
      vertex 9.05553 -101 3.21612
    endloop
  endfacet
  facet normal -0.923879 0 0.382686
    outer loop
      vertex 8.33266 -101 2.13427
      vertex 8.5865 -15.6028 2.74709
      vertex 8.33266 -15.6028 2.13427
    endloop
  endfacet
  facet normal -0.923879 0 0.382686
    outer loop
      vertex 8.5865 -15.6028 2.74709
      vertex 8.33266 -101 2.13427
      vertex 8.5865 -101 2.74709
    endloop
  endfacet
  facet normal -0.831454 0.555594 0
    outer loop
      vertex 8.45958 -14.9647 1.47096
      vertex 8.82102 -14.4238 2.13427
      vertex 8.82102 -14.4238 1.47096
    endloop
  endfacet
  facet normal -0.831454 0.555594 0
    outer loop
      vertex 8.82102 -14.4238 2.13427
      vertex 8.45958 -14.9647 1.47096
      vertex 8.45958 -14.9647 2.13427
    endloop
  endfacet
  facet normal -0.980787 0.195081 0
    outer loop
      vertex 8.33266 -15.6028 1.47096
      vertex 8.45958 -14.9647 2.13427
      vertex 8.45958 -14.9647 1.47096
    endloop
  endfacet
  facet normal -0.980787 0.195081 0
    outer loop
      vertex 8.45958 -14.9647 2.13427
      vertex 8.33266 -15.6028 1.47096
      vertex 8.33266 -15.6028 2.13427
    endloop
  endfacet
  facet normal -0.13929 0.700232 -0.700195
    outer loop
      vertex 9.63857 -14.7302 0.38912
      vertex 9.45908 -14.2969 0.858149
      vertex 10 -14.1893 0.858149
    endloop
  endfacet
  facet normal -0.139299 0.700234 -0.700191
    outer loop
      vertex 10 -14.6583 0.38912
      vertex 9.63857 -14.7302 0.38912
      vertex 10 -14.1893 0.858149
    endloop
  endfacet
  facet normal -0.700217 0.139249 -0.700218
    outer loop
      vertex 9.05553 -15.6028 0.38912
      vertex 8.5865 -15.6028 0.858149
      vertex 9.12742 -15.2413 0.38912
    endloop
  endfacet
  facet normal -0.77032 0.514743 -0.376359
    outer loop
      vertex 8.6941 -15.0618 0.858149
      vertex 8.45958 -14.9647 1.47096
      vertex 8.82102 -14.4238 1.47096
    endloop
  endfacet
  facet normal -0.700222 0.139268 -0.70021
    outer loop
      vertex 9.12742 -15.2413 0.38912
      vertex 8.5865 -15.6028 0.858149
      vertex 8.6941 -15.0618 0.858149
    endloop
  endfacet
  facet normal -0.908664 0.180725 -0.376389
    outer loop
      vertex 8.5865 -15.6028 0.858149
      vertex 8.33266 -15.6028 1.47096
      vertex 8.6941 -15.0618 0.858149
    endloop
  endfacet
  facet normal 0.0760583 0.381494 0.921237
    outer loop
      vertex 10.3614 -14.7302 3.21612
      vertex 10 -15.2711 3.46995
      vertex 10.1269 -15.2964 3.46995
    endloop
  endfacet
  facet normal 0.923898 0 -0.382639
    outer loop
      vertex 11.6673 -100.309 1.47096
      vertex 11.4135 -15.6028 0.858149
      vertex 11.6673 -15.6028 1.47096
    endloop
  endfacet
  facet normal 0.923898 0 -0.382639
    outer loop
      vertex 11.4135 -15.6028 0.858149
      vertex 11.6673 -100.309 1.47096
      vertex 11.4135 -100.415 0.858149
    endloop
  endfacet
  facet normal 0.593536 0.396724 0.700232
    outer loop
      vertex 10.9995 -14.6033 2.74709
      vertex 10.6678 -14.9349 3.21612
      vertex 10.8726 -15.2413 3.21612
    endloop
  endfacet
  facet normal 0.216109 0.323477 0.921227
    outer loop
      vertex 10.3614 -14.7302 3.21612
      vertex 10.2345 -15.3683 3.46995
      vertex 10.6678 -14.9349 3.21612
    endloop
  endfacet
  facet normal 0.195052 0.980793 -0
    outer loop
      vertex 10.6381 -14.0623 1.47096
      vertex 10 -13.9354 2.13427
      vertex 10.6381 -14.0623 2.13427
    endloop
  endfacet
  facet normal 0.195052 0.980793 0
    outer loop
      vertex 10 -13.9354 2.13427
      vertex 10.6381 -14.0623 1.47096
      vertex 10 -13.9354 1.47096
    endloop
  endfacet
  facet normal 0.770353 0.514708 -0.376341
    outer loop
      vertex 11.3059 -15.0618 0.858149
      vertex 11.179 -14.4238 1.47096
      vertex 11.5404 -14.9647 1.47096
    endloop
  endfacet
  facet normal 0.514681 0.770342 -0.376399
    outer loop
      vertex 10.9995 -14.6033 0.858149
      vertex 10.5409 -14.2969 0.858149
      vertex 11.179 -14.4238 1.47096
    endloop
  endfacet
  facet normal -0.396614 0.593681 0.700172
    outer loop
      vertex 9.63857 -14.7302 3.21612
      vertex 9.00051 -14.6033 2.74709
      vertex 9.33216 -14.9349 3.21612
    endloop
  endfacet
  facet normal -0.396643 0.593631 0.700198
    outer loop
      vertex 9.45908 -14.2969 2.74709
      vertex 9.00051 -14.6033 2.74709
      vertex 9.63857 -14.7302 3.21612
    endloop
  endfacet
  facet normal 0.593603 0.396685 -0.700198
    outer loop
      vertex 11.3059 -15.0618 0.858149
      vertex 10.8726 -15.2413 0.38912
      vertex 10.9995 -14.6033 0.858149
    endloop
  endfacet
  facet normal 0.700237 0.139271 -0.700195
    outer loop
      vertex 11.4135 -15.6028 0.858149
      vertex 10.8726 -15.2413 0.38912
      vertex 11.3059 -15.0618 0.858149
    endloop
  endfacet
  facet normal 0.0760601 0.381503 -0.921233
    outer loop
      vertex 10.1269 -15.2964 0.135283
      vertex 10 -15.2711 0.135283
      vertex 10.3614 -14.7302 0.38912
    endloop
  endfacet
  facet normal 0.323406 0.216306 -0.921206
    outer loop
      vertex 10.3064 -15.4758 0.135283
      vertex 10.2345 -15.3683 0.135283
      vertex 10.8726 -15.2413 0.38912
    endloop
  endfacet
  facet normal -0.323428 0.21629 -0.921202
    outer loop
      vertex 9.69359 -15.4758 0.135283
      vertex 9.12742 -15.2413 0.38912
      vertex 9.76548 -15.3683 0.135283
    endloop
  endfacet
  facet normal -0.770284 0.514771 -0.376396
    outer loop
      vertex 9.00051 -14.6033 0.858149
      vertex 8.6941 -15.0618 0.858149
      vertex 8.82102 -14.4238 1.47096
    endloop
  endfacet
  facet normal -0.514706 0.770328 -0.376394
    outer loop
      vertex 9.00051 -14.6033 0.858149
      vertex 8.82102 -14.4238 1.47096
      vertex 9.45908 -14.2969 0.858149
    endloop
  endfacet
  facet normal -0.0760487 0.381506 -0.921233
    outer loop
      vertex 9.87308 -15.2964 0.135283
      vertex 9.63857 -14.7302 0.38912
      vertex 10 -15.2711 0.135283
    endloop
  endfacet
  facet normal 0.381524 0.0760044 -0.921229
    outer loop
      vertex 10.3317 -15.6028 0.135283
      vertex 10.3064 -15.4758 0.135283
      vertex 10.8726 -15.2413 0.38912
    endloop
  endfacet
  facet normal 0.382683 0 0.92388
    outer loop
      vertex 10.3317 -15.6028 3.46995
      vertex 10.9445 -100.609 3.21612
      vertex 10.9445 -15.6028 3.21612
    endloop
  endfacet
  facet normal 0.382683 0 0.92388
    outer loop
      vertex 10.9445 -100.609 3.21612
      vertex 10.3317 -15.6028 3.46995
      vertex 10.3317 -100.863 3.46995
    endloop
  endfacet
  facet normal 1 -0 0
    outer loop
      vertex 11.6673 -100.309 2.13427
      vertex 11.6673 -15.6028 1.47096
      vertex 11.6673 -15.6028 2.13427
    endloop
  endfacet
  facet normal 1 0 0
    outer loop
      vertex 11.6673 -15.6028 1.47096
      vertex 11.6673 -100.309 2.13427
      vertex 11.6673 -100.309 1.47096
    endloop
  endfacet
  facet normal 0.216146 0.323468 0.921222
    outer loop
      vertex 10.3614 -14.7302 3.21612
      vertex 10.1269 -15.2964 3.46995
      vertex 10.2345 -15.3683 3.46995
    endloop
  endfacet
  facet normal -0.0760469 0.381497 0.921237
    outer loop
      vertex 10 -15.2711 3.46995
      vertex 9.63857 -14.7302 3.21612
      vertex 9.87308 -15.2964 3.46995
    endloop
  endfacet
  facet normal 0.39661 0.593656 -0.700195
    outer loop
      vertex 10.6678 -14.9349 0.38912
      vertex 10.3614 -14.7302 0.38912
      vertex 10.9995 -14.6033 0.858149
    endloop
  endfacet
  facet normal 0.396621 0.593637 -0.700205
    outer loop
      vertex 10.9995 -14.6033 0.858149
      vertex 10.3614 -14.7302 0.38912
      vertex 10.5409 -14.2969 0.858149
    endloop
  endfacet
  facet normal -0.770285 0.514772 0.376391
    outer loop
      vertex 8.82102 -14.4238 2.13427
      vertex 8.6941 -15.0618 2.74709
      vertex 9.00051 -14.6033 2.74709
    endloop
  endfacet
  facet normal -0.593588 0.396688 0.700209
    outer loop
      vertex 9.00051 -14.6033 2.74709
      vertex 8.6941 -15.0618 2.74709
      vertex 9.12742 -15.2413 3.21612
    endloop
  endfacet
  facet normal -0.21615 0.323473 -0.921219
    outer loop
      vertex 9.76548 -15.3683 0.135283
      vertex 9.63857 -14.7302 0.38912
      vertex 9.87308 -15.2964 0.135283
    endloop
  endfacet
  facet normal 0 0 -1
    outer loop
      vertex 25.3064 -116.127 0.135283
      vertex 25.3064 -115.873 0.135283
      vertex 25.3317 -116 0.135283
    endloop
  endfacet
  facet normal 0 0 -1
    outer loop
      vertex 25.2345 -116.235 0.135283
      vertex 25.3064 -115.873 0.135283
      vertex 25.3064 -116.127 0.135283
    endloop
  endfacet
  facet normal 0 0 -1
    outer loop
      vertex 25.2345 -116.235 0.135283
      vertex 25.2345 -115.765 0.135283
      vertex 25.3064 -115.873 0.135283
    endloop
  endfacet
  facet normal 0 0 -1
    outer loop
      vertex 25.1269 -116.306 0.135283
      vertex 25.2345 -115.765 0.135283
      vertex 25.2345 -116.235 0.135283
    endloop
  endfacet
  facet normal 0 0 -1
    outer loop
      vertex 25 -116.332 0.135283
      vertex 25.2345 -115.765 0.135283
      vertex 25.1269 -116.306 0.135283
    endloop
  endfacet
  facet normal 0 0 -1
    outer loop
      vertex 24.8731 -116.306 0.135283
      vertex 25.2345 -115.765 0.135283
      vertex 25 -116.332 0.135283
    endloop
  endfacet
  facet normal 0 0 -1
    outer loop
      vertex 24.7655 -116.235 0.135283
      vertex 25.2345 -115.765 0.135283
      vertex 24.8731 -116.306 0.135283
    endloop
  endfacet
  facet normal 0 0 -1
    outer loop
      vertex 24.7655 -116.235 0.135283
      vertex 10.3317 -100.863 0.135283
      vertex 25.2345 -115.765 0.135283
    endloop
  endfacet
  facet normal 0 0 -1
    outer loop
      vertex 9.66835 -15.6028 0.135283
      vertex 10.3317 -15.6028 0.135283
      vertex 10.3317 -100.863 0.135283
    endloop
  endfacet
  facet normal 0 0 -1
    outer loop
      vertex 10.3317 -15.6028 0.135283
      vertex 9.66835 -15.6028 0.135283
      vertex 10.3064 -15.4758 0.135283
    endloop
  endfacet
  facet normal -0 0 -1
    outer loop
      vertex 10.3064 -15.4758 0.135283
      vertex 9.66835 -15.6028 0.135283
      vertex 10.2345 -15.3683 0.135283
    endloop
  endfacet
  facet normal -0 0 -1
    outer loop
      vertex 10.2345 -15.3683 0.135283
      vertex 9.66835 -15.6028 0.135283
      vertex 10.1269 -15.2964 0.135283
    endloop
  endfacet
  facet normal -0 0 -1
    outer loop
      vertex 10.1269 -15.2964 0.135283
      vertex 9.66835 -15.6028 0.135283
      vertex 10 -15.2711 0.135283
    endloop
  endfacet
  facet normal 0 0 -1
    outer loop
      vertex 9.76548 -101.235 0.135283
      vertex 10.3317 -100.863 0.135283
      vertex 24.7655 -116.235 0.135283
    endloop
  endfacet
  facet normal 0 0 -1
    outer loop
      vertex 9.66835 -101 0.135283
      vertex 10.3317 -100.863 0.135283
      vertex 9.76548 -101.235 0.135283
    endloop
  endfacet
  facet normal 0 0 -1
    outer loop
      vertex 9.66835 -15.6028 0.135283
      vertex 10.3317 -100.863 0.135283
      vertex 9.66835 -101 0.135283
    endloop
  endfacet
  facet normal 0 0 -1
    outer loop
      vertex 9.66835 -101 0.135283
      vertex 9.76548 -101.235 0.135283
      vertex 9.69359 -101.127 0.135283
    endloop
  endfacet
  facet normal 0 0 -1
    outer loop
      vertex 10 -15.2711 0.135283
      vertex 9.66835 -15.6028 0.135283
      vertex 9.87308 -15.2964 0.135283
    endloop
  endfacet
  facet normal 0 0 -1
    outer loop
      vertex 9.87308 -15.2964 0.135283
      vertex 9.66835 -15.6028 0.135283
      vertex 9.76548 -15.3683 0.135283
    endloop
  endfacet
  facet normal 0 0 -1
    outer loop
      vertex 9.76548 -15.3683 0.135283
      vertex 9.66835 -15.6028 0.135283
      vertex 9.69359 -15.4758 0.135283
    endloop
  endfacet
  facet normal 0 0 1
    outer loop
      vertex 9.66835 -15.6028 3.46995
      vertex 10.3317 -15.6028 3.46995
      vertex 10.3064 -15.4758 3.46995
    endloop
  endfacet
  facet normal 0 0 1
    outer loop
      vertex 25.3064 -115.873 3.46995
      vertex 25.3064 -116.127 3.46995
      vertex 25.3317 -116 3.46995
    endloop
  endfacet
  facet normal 0 0 1
    outer loop
      vertex 25.2345 -115.765 3.46995
      vertex 25.3064 -116.127 3.46995
      vertex 25.3064 -115.873 3.46995
    endloop
  endfacet
  facet normal 0 0 1
    outer loop
      vertex 25.2345 -115.765 3.46995
      vertex 25.2345 -116.235 3.46995
      vertex 25.3064 -116.127 3.46995
    endloop
  endfacet
  facet normal 0 0 1
    outer loop
      vertex 25.2345 -115.765 3.46995
      vertex 25.1269 -116.306 3.46995
      vertex 25.2345 -116.235 3.46995
    endloop
  endfacet
  facet normal 0 0 1
    outer loop
      vertex 25.2345 -115.765 3.46995
      vertex 25 -116.332 3.46995
      vertex 25.1269 -116.306 3.46995
    endloop
  endfacet
  facet normal 0 0 1
    outer loop
      vertex 25.2345 -115.765 3.46995
      vertex 24.8731 -116.306 3.46995
      vertex 25 -116.332 3.46995
    endloop
  endfacet
  facet normal 0 0 1
    outer loop
      vertex 25.2345 -115.765 3.46995
      vertex 24.7655 -116.235 3.46995
      vertex 24.8731 -116.306 3.46995
    endloop
  endfacet
  facet normal 0 0 1
    outer loop
      vertex 10.3317 -100.863 3.46995
      vertex 24.7655 -116.235 3.46995
      vertex 25.2345 -115.765 3.46995
    endloop
  endfacet
  facet normal 0 0 1
    outer loop
      vertex 9.66835 -15.6028 3.46995
      vertex 10.3064 -15.4758 3.46995
      vertex 10.2345 -15.3683 3.46995
    endloop
  endfacet
  facet normal 0 0 1
    outer loop
      vertex 9.66835 -15.6028 3.46995
      vertex 10.2345 -15.3683 3.46995
      vertex 10.1269 -15.2964 3.46995
    endloop
  endfacet
  facet normal 0 0 1
    outer loop
      vertex 9.66835 -15.6028 3.46995
      vertex 10.1269 -15.2964 3.46995
      vertex 10 -15.2711 3.46995
    endloop
  endfacet
  facet normal 0 0 1
    outer loop
      vertex 9.66835 -15.6028 3.46995
      vertex 10 -15.2711 3.46995
      vertex 9.87308 -15.2964 3.46995
    endloop
  endfacet
  facet normal 0 0 1
    outer loop
      vertex 9.66835 -15.6028 3.46995
      vertex 9.87308 -15.2964 3.46995
      vertex 9.76548 -15.3683 3.46995
    endloop
  endfacet
  facet normal 0 0 1
    outer loop
      vertex 10.3317 -100.863 3.46995
      vertex 9.76548 -101.235 3.46995
      vertex 24.7655 -116.235 3.46995
    endloop
  endfacet
  facet normal 0 0 1
    outer loop
      vertex 10.3317 -15.6028 3.46995
      vertex 9.66835 -15.6028 3.46995
      vertex 10.3317 -100.863 3.46995
    endloop
  endfacet
  facet normal 0 0 1
    outer loop
      vertex 9.66835 -15.6028 3.46995
      vertex 9.76548 -15.3683 3.46995
      vertex 9.69359 -15.4758 3.46995
    endloop
  endfacet
  facet normal 0 0 1
    outer loop
      vertex 9.66835 -101 3.46995
      vertex 10.3317 -100.863 3.46995
      vertex 9.66835 -15.6028 3.46995
    endloop
  endfacet
  facet normal 0 0 1
    outer loop
      vertex 10.3317 -100.863 3.46995
      vertex 9.66835 -101 3.46995
      vertex 9.76548 -101.235 3.46995
    endloop
  endfacet
  facet normal 0 0 1
    outer loop
      vertex 9.76548 -101.235 3.46995
      vertex 9.66835 -101 3.46995
      vertex 9.69359 -101.127 3.46995
    endloop
  endfacet
  facet normal -0.908666 -0.180725 0.376384
    outer loop
      vertex 8.5865 -101 2.74709
      vertex 8.33266 -101 2.13427
      vertex 8.6941 -101.541 2.74709
    endloop
  endfacet
  facet normal -0.908669 -0.180765 -0.376356
    outer loop
      vertex 8.45958 -101.638 1.47096
      vertex 8.33266 -101 1.47096
      vertex 8.6941 -101.541 0.858149
    endloop
  endfacet
  facet normal -0.323812 -0.215952 -0.921147
    outer loop
      vertex 9.33216 -101.668 0.38912
      vertex 9.12742 -101.361 0.38912
      vertex 9.76548 -101.235 0.135283
    endloop
  endfacet
  facet normal -0.908671 -0.180766 0.376352
    outer loop
      vertex 8.6941 -101.541 2.74709
      vertex 8.33266 -101 2.13427
      vertex 8.45958 -101.638 2.13427
    endloop
  endfacet
  facet normal -0.908664 -0.180725 -0.376389
    outer loop
      vertex 8.6941 -101.541 0.858149
      vertex 8.33266 -101 1.47096
      vertex 8.5865 -101 0.858149
    endloop
  endfacet
  facet normal -0.831501 -0.555523 0
    outer loop
      vertex 8.82102 -102.179 1.47096
      vertex 8.45958 -101.638 2.13427
      vertex 8.45958 -101.638 1.47096
    endloop
  endfacet
  facet normal -0.831501 -0.555523 0
    outer loop
      vertex 8.45958 -101.638 2.13427
      vertex 8.82102 -102.179 1.47096
      vertex 8.82102 -102.179 2.13427
    endloop
  endfacet
  facet normal -0.381566 -0.0759856 0.921213
    outer loop
      vertex 9.66835 -101 3.46995
      vertex 9.05553 -101 3.21612
      vertex 9.12742 -101.361 3.21612
    endloop
  endfacet
  facet normal -0.770388 -0.514693 0.376288
    outer loop
      vertex 8.6941 -101.541 2.74709
      vertex 8.45958 -101.638 2.13427
      vertex 8.82102 -102.179 2.13427
    endloop
  endfacet
  facet normal -0.769891 -0.515071 -0.376789
    outer loop
      vertex 8.82102 -102.179 1.47096
      vertex 8.6941 -101.541 0.858149
      vertex 9.00051 -101.999 0.858149
    endloop
  endfacet
  facet normal -0.770387 -0.514692 -0.376293
    outer loop
      vertex 8.82102 -102.179 1.47096
      vertex 8.45958 -101.638 1.47096
      vertex 8.6941 -101.541 0.858149
    endloop
  endfacet
  facet normal -0.594245 -0.396305 -0.699868
    outer loop
      vertex 9.33216 -101.668 0.38912
      vertex 9.00051 -101.999 0.858149
      vertex 9.12742 -101.361 0.38912
    endloop
  endfacet
  facet normal -0.769893 -0.515072 0.376784
    outer loop
      vertex 9.00051 -101.999 2.74709
      vertex 8.6941 -101.541 2.74709
      vertex 8.82102 -102.179 2.13427
    endloop
  endfacet
  facet normal -0.381647 -0.0758486 0.921191
    outer loop
      vertex 9.66835 -101 3.46995
      vertex 9.12742 -101.361 3.21612
      vertex 9.69359 -101.127 3.46995
    endloop
  endfacet
  facet normal -0.700199 -0.139438 0.700199
    outer loop
      vertex 9.05553 -101 3.21612
      vertex 8.5865 -101 2.74709
      vertex 9.12742 -101.361 3.21612
    endloop
  endfacet
  facet normal -0.70015 -0.139253 0.700285
    outer loop
      vertex 9.12742 -101.361 3.21612
      vertex 8.5865 -101 2.74709
      vertex 8.6941 -101.541 2.74709
    endloop
  endfacet
  facet normal -0.381575 -0.0759874 -0.921209
    outer loop
      vertex 9.12742 -101.361 0.38912
      vertex 9.05553 -101 0.38912
      vertex 9.66835 -101 0.135283
    endloop
  endfacet
  facet normal -0.980781 -0.195111 0
    outer loop
      vertex 8.45958 -101.638 1.47096
      vertex 8.33266 -101 2.13427
      vertex 8.33266 -101 1.47096
    endloop
  endfacet
  facet normal -0.980781 -0.195111 0
    outer loop
      vertex 8.33266 -101 2.13427
      vertex 8.45958 -101.638 1.47096
      vertex 8.45958 -101.638 2.13427
    endloop
  endfacet
  facet normal -0.594246 -0.396306 0.699867
    outer loop
      vertex 9.12742 -101.361 3.21612
      vertex 9.00051 -101.999 2.74709
      vertex 9.33216 -101.668 3.21612
    endloop
  endfacet
  facet normal -0.593241 -0.396889 0.700389
    outer loop
      vertex 9.12742 -101.361 3.21612
      vertex 8.6941 -101.541 2.74709
      vertex 9.00051 -101.999 2.74709
    endloop
  endfacet
  facet normal -0.323893 -0.215599 0.921201
    outer loop
      vertex 9.69359 -101.127 3.46995
      vertex 9.12742 -101.361 3.21612
      vertex 9.76548 -101.235 3.46995
    endloop
  endfacet
  facet normal -0.700198 -0.139438 -0.7002
    outer loop
      vertex 9.12742 -101.361 0.38912
      vertex 8.5865 -101 0.858149
      vertex 9.05553 -101 0.38912
    endloop
  endfacet
  facet normal -0.323804 -0.215947 0.92115
    outer loop
      vertex 9.76548 -101.235 3.46995
      vertex 9.12742 -101.361 3.21612
      vertex 9.33216 -101.668 3.21612
    endloop
  endfacet
  facet normal -0.593241 -0.396888 -0.700389
    outer loop
      vertex 9.00051 -101.999 0.858149
      vertex 8.6941 -101.541 0.858149
      vertex 9.12742 -101.361 0.38912
    endloop
  endfacet
  facet normal -0.700149 -0.139253 -0.700285
    outer loop
      vertex 8.6941 -101.541 0.858149
      vertex 8.5865 -101 0.858149
      vertex 9.12742 -101.361 0.38912
    endloop
  endfacet
  facet normal -0.3239 -0.215604 -0.921197
    outer loop
      vertex 9.76548 -101.235 0.135283
      vertex 9.12742 -101.361 0.38912
      vertex 9.69359 -101.127 0.135283
    endloop
  endfacet
  facet normal -0.381656 -0.0758504 -0.921187
    outer loop
      vertex 9.69359 -101.127 0.135283
      vertex 9.12742 -101.361 0.38912
      vertex 9.66835 -101 0.135283
    endloop
  endfacet
  facet normal -0.397298 -0.593488 -0.699947
    outer loop
      vertex 24.4591 -117.306 0.858149
      vertex 24.0005 -116.999 0.858149
      vertex 24.6386 -116.873 0.38912
    endloop
  endfacet
  facet normal 0.769896 0.515057 -0.376799
    outer loop
      vertex 26.3059 -115.459 0.858149
      vertex 25.9995 -115.001 0.858149
      vertex 26.179 -114.821 1.47096
    endloop
  endfacet
  facet normal 0.707114 0.707099 0
    outer loop
      vertex 26.179 -114.821 2.13427
      vertex 11.6673 -100.309 1.47096
      vertex 11.6673 -100.309 2.13427
    endloop
  endfacet
  facet normal 0.707114 0.707099 0
    outer loop
      vertex 11.6673 -100.309 1.47096
      vertex 26.179 -114.821 2.13427
      vertex 26.179 -114.821 1.47096
    endloop
  endfacet
  facet normal -0.515243 -0.769676 0.376991
    outer loop
      vertex 24.0005 -116.999 2.74709
      vertex 23.821 -117.179 2.13427
      vertex 24.4591 -117.306 2.74709
    endloop
  endfacet
  facet normal -0.653146 -0.653146 0.383146
    outer loop
      vertex 8.82102 -102.179 2.13427
      vertex 24.0005 -116.999 2.74709
      vertex 9.00051 -101.999 2.74709
    endloop
  endfacet
  facet normal -0.653144 -0.653143 0.383155
    outer loop
      vertex 24.0005 -116.999 2.74709
      vertex 8.82102 -102.179 2.13427
      vertex 23.821 -117.179 2.13427
    endloop
  endfacet
  facet normal 0.594157 -0.396363 -0.69991
    outer loop
      vertex 25.9995 -116.999 0.858149
      vertex 25.6678 -116.668 0.38912
      vertex 25.8726 -116.361 0.38912
    endloop
  endfacet
  facet normal 0.0750529 -0.38203 0.921097
    outer loop
      vertex 25 -116.332 3.46995
      vertex 25 -116.944 3.21612
      vertex 25.3614 -116.873 3.21612
    endloop
  endfacet
  facet normal 0.653149 0.653135 -0.38316
    outer loop
      vertex 25.9995 -115.001 0.858149
      vertex 11.6673 -100.309 1.47096
      vertex 26.179 -114.821 1.47096
    endloop
  endfacet
  facet normal 0.653062 0.653062 -0.383432
    outer loop
      vertex 11.6673 -100.309 1.47096
      vertex 25.9995 -115.001 0.858149
      vertex 11.4135 -100.415 0.858149
    endloop
  endfacet
  facet normal 0.270683 0.270689 0.923828
    outer loop
      vertex 10.9445 -100.609 3.21612
      vertex 25.2345 -115.765 3.46995
      vertex 25.6678 -115.332 3.21612
    endloop
  endfacet
  facet normal 0.270548 0.270563 0.923905
    outer loop
      vertex 25.2345 -115.765 3.46995
      vertex 10.9445 -100.609 3.21612
      vertex 10.3317 -100.863 3.46995
    endloop
  endfacet
  facet normal 0.397298 -0.593488 -0.699947
    outer loop
      vertex 25.5409 -117.306 0.858149
      vertex 25.3614 -116.873 0.38912
      vertex 25.9995 -116.999 0.858149
    endloop
  endfacet
  facet normal -0.707107 -0.707106 0
    outer loop
      vertex 23.821 -117.179 1.47096
      vertex 8.82102 -102.179 2.13427
      vertex 8.82102 -102.179 1.47096
    endloop
  endfacet
  facet normal -0.707107 -0.707106 0
    outer loop
      vertex 8.82102 -102.179 2.13427
      vertex 23.821 -117.179 1.47096
      vertex 23.821 -117.179 2.13427
    endloop
  endfacet
  facet normal -0.514413 -0.770764 0.375901
    outer loop
      vertex 24.4591 -117.306 2.74709
      vertex 23.821 -117.179 2.13427
      vertex 24.3619 -117.54 2.13427
    endloop
  endfacet
  facet normal 0.908686 0.18074 -0.376329
    outer loop
      vertex 26.6673 -116 1.47096
      vertex 26.3059 -115.459 0.858149
      vertex 26.5404 -115.362 1.47096
    endloop
  endfacet
  facet normal 0.770421 -0.514658 0.37627
    outer loop
      vertex 26.3059 -116.541 2.74709
      vertex 26.179 -117.179 2.13427
      vertex 26.5404 -116.638 2.13427
    endloop
  endfacet
  facet normal 0.770421 0.514658 0.37627
    outer loop
      vertex 26.5404 -115.362 2.13427
      vertex 26.179 -114.821 2.13427
      vertex 26.3059 -115.459 2.74709
    endloop
  endfacet
  facet normal -0.653145 -0.653144 -0.383151
    outer loop
      vertex 24.0005 -116.999 0.858149
      vertex 8.82102 -102.179 1.47096
      vertex 9.00051 -101.999 0.858149
    endloop
  endfacet
  facet normal -0.653142 -0.653141 -0.38316
    outer loop
      vertex 8.82102 -102.179 1.47096
      vertex 24.0005 -116.999 0.858149
      vertex 23.821 -117.179 1.47096
    endloop
  endfacet
  facet normal -0.180896 -0.908894 -0.375751
    outer loop
      vertex 25 -117.667 1.47096
      vertex 24.3619 -117.54 1.47096
      vertex 24.4591 -117.306 0.858149
    endloop
  endfacet
  facet normal 0.138606 -0.70067 -0.699893
    outer loop
      vertex 25.5409 -117.306 0.858149
      vertex 25 -117.413 0.858149
      vertex 25.3614 -116.873 0.38912
    endloop
  endfacet
  facet normal 0.514412 -0.770763 -0.375906
    outer loop
      vertex 25.6381 -117.54 1.47096
      vertex 25.5409 -117.306 0.858149
      vertex 26.179 -117.179 1.47096
    endloop
  endfacet
  facet normal -0.515242 -0.769675 -0.376996
    outer loop
      vertex 24.4591 -117.306 0.858149
      vertex 23.821 -117.179 1.47096
      vertex 24.0005 -116.999 0.858149
    endloop
  endfacet
  facet normal 0.770419 0.514657 -0.376274
    outer loop
      vertex 26.3059 -115.459 0.858149
      vertex 26.179 -114.821 1.47096
      vertex 26.5404 -115.362 1.47096
    endloop
  endfacet
  facet normal 0.381586 -0.076 -0.921204
    outer loop
      vertex 25.8726 -116.361 0.38912
      vertex 25.3317 -116 0.135283
      vertex 25.9445 -116 0.38912
    endloop
  endfacet
  facet normal 0.21641 -0.323453 -0.921165
    outer loop
      vertex 25.3614 -116.873 0.38912
      vertex 25.2345 -116.235 0.135283
      vertex 25.6678 -116.668 0.38912
    endloop
  endfacet
  facet normal 0.908686 -0.180729 0.376333
    outer loop
      vertex 26.4135 -116 2.74709
      vertex 26.3059 -116.541 2.74709
      vertex 26.6673 -116 2.13427
    endloop
  endfacet
  facet normal 0.323871 0.215614 0.921205
    outer loop
      vertex 25.8726 -115.639 3.21612
      vertex 25.2345 -115.765 3.46995
      vertex 25.3064 -115.873 3.46995
    endloop
  endfacet
  facet normal 0.381568 -0.0760131 0.92121
    outer loop
      vertex 25.3317 -116 3.46995
      vertex 25.3064 -116.127 3.46995
      vertex 25.8726 -116.361 3.21612
    endloop
  endfacet
  facet normal 0.908686 -0.18074 -0.376329
    outer loop
      vertex 26.5404 -116.638 1.47096
      vertex 26.3059 -116.541 0.858149
      vertex 26.6673 -116 1.47096
    endloop
  endfacet
  facet normal -0.514412 -0.770763 -0.375906
    outer loop
      vertex 24.3619 -117.54 1.47096
      vertex 23.821 -117.179 1.47096
      vertex 24.4591 -117.306 0.858149
    endloop
  endfacet
  facet normal 0.180896 -0.908894 -0.375751
    outer loop
      vertex 25.6381 -117.54 1.47096
      vertex 25 -117.667 1.47096
      vertex 25.5409 -117.306 0.858149
    endloop
  endfacet
  facet normal 0.769897 -0.515058 0.376794
    outer loop
      vertex 26.3059 -116.541 2.74709
      vertex 25.9995 -116.999 2.74709
      vertex 26.179 -117.179 2.13427
    endloop
  endfacet
  facet normal 0.83153 -0.55548 0
    outer loop
      vertex 26.179 -117.179 2.13427
      vertex 26.5404 -116.638 1.47096
      vertex 26.5404 -116.638 2.13427
    endloop
  endfacet
  facet normal 0.83153 -0.55548 0
    outer loop
      vertex 26.5404 -116.638 1.47096
      vertex 26.179 -117.179 2.13427
      vertex 26.179 -117.179 1.47096
    endloop
  endfacet
  facet normal 0.593256 0.396886 -0.700378
    outer loop
      vertex 26.3059 -115.459 0.858149
      vertex 25.8726 -115.639 0.38912
      vertex 25.9995 -115.001 0.858149
    endloop
  endfacet
  facet normal 0.770419 -0.514657 -0.376274
    outer loop
      vertex 26.5404 -116.638 1.47096
      vertex 26.179 -117.179 1.47096
      vertex 26.3059 -116.541 0.858149
    endloop
  endfacet
  facet normal 0.65315 0.653137 0.383155
    outer loop
      vertex 11.6673 -100.309 2.13427
      vertex 25.9995 -115.001 2.74709
      vertex 26.179 -114.821 2.13427
    endloop
  endfacet
  facet normal 0.653063 0.653063 0.383428
    outer loop
      vertex 25.9995 -115.001 2.74709
      vertex 11.6673 -100.309 2.13427
      vertex 11.4135 -100.415 2.74709
    endloop
  endfacet
  facet normal 0.500229 0.500229 0.706782
    outer loop
      vertex 11.4135 -100.415 2.74709
      vertex 25.6678 -115.332 3.21612
      vertex 25.9995 -115.001 2.74709
    endloop
  endfacet
  facet normal 0.500112 0.500122 0.706941
    outer loop
      vertex 25.6678 -115.332 3.21612
      vertex 11.4135 -100.415 2.74709
      vertex 10.9445 -100.609 3.21612
    endloop
  endfacet
  facet normal -0.0750529 -0.38203 0.921097
    outer loop
      vertex 25 -116.332 3.46995
      vertex 24.6386 -116.873 3.21612
      vertex 25 -116.944 3.21612
    endloop
  endfacet
  facet normal -0.1376 -0.700403 0.700358
    outer loop
      vertex 25 -116.944 3.21612
      vertex 24.6386 -116.873 3.21612
      vertex 25 -117.413 2.74709
    endloop
  endfacet
  facet normal 0.980787 0.195081 0
    outer loop
      vertex 26.6673 -116 2.13427
      vertex 26.5404 -115.362 1.47096
      vertex 26.5404 -115.362 2.13427
    endloop
  endfacet
  facet normal 0.980787 0.195081 0
    outer loop
      vertex 26.5404 -115.362 1.47096
      vertex 26.6673 -116 2.13427
      vertex 26.6673 -116 1.47096
    endloop
  endfacet
  facet normal 0.83153 0.55548 0
    outer loop
      vertex 26.5404 -115.362 2.13427
      vertex 26.179 -114.821 1.47096
      vertex 26.179 -114.821 2.13427
    endloop
  endfacet
  facet normal 0.83153 0.55548 0
    outer loop
      vertex 26.179 -114.821 1.47096
      vertex 26.5404 -115.362 2.13427
      vertex 26.5404 -115.362 1.47096
    endloop
  endfacet
  facet normal -0.180896 -0.908896 0.375746
    outer loop
      vertex 24.4591 -117.306 2.74709
      vertex 24.3619 -117.54 2.13427
      vertex 25 -117.667 2.13427
    endloop
  endfacet
  facet normal 0.908684 -0.180729 -0.376338
    outer loop
      vertex 26.6673 -116 1.47096
      vertex 26.3059 -116.541 0.858149
      vertex 26.4135 -116 0.858149
    endloop
  endfacet
  facet normal 0.593256 -0.396886 -0.700378
    outer loop
      vertex 25.9995 -116.999 0.858149
      vertex 25.8726 -116.361 0.38912
      vertex 26.3059 -116.541 0.858149
    endloop
  endfacet
  facet normal 0.27069 0.270695 -0.923824
    outer loop
      vertex 25.2345 -115.765 0.135283
      vertex 10.9445 -100.609 0.38912
      vertex 25.6678 -115.332 0.38912
    endloop
  endfacet
  facet normal 0.270554 0.270569 -0.923901
    outer loop
      vertex 10.9445 -100.609 0.38912
      vertex 25.2345 -115.765 0.135283
      vertex 10.3317 -100.863 0.135283
    endloop
  endfacet
  facet normal 0.769896 -0.515057 -0.376799
    outer loop
      vertex 26.179 -117.179 1.47096
      vertex 25.9995 -116.999 0.858149
      vertex 26.3059 -116.541 0.858149
    endloop
  endfacet
  facet normal 0.908687 -0.180741 0.376324
    outer loop
      vertex 26.6673 -116 2.13427
      vertex 26.3059 -116.541 2.74709
      vertex 26.5404 -116.638 2.13427
    endloop
  endfacet
  facet normal 0.908686 0.180729 0.376333
    outer loop
      vertex 26.6673 -116 2.13427
      vertex 26.3059 -115.459 2.74709
      vertex 26.4135 -116 2.74709
    endloop
  endfacet
  facet normal 0.908687 0.180741 0.376324
    outer loop
      vertex 26.5404 -115.362 2.13427
      vertex 26.3059 -115.459 2.74709
      vertex 26.6673 -116 2.13427
    endloop
  endfacet
  facet normal 0.179766 -0.908742 -0.376659
    outer loop
      vertex 25.5409 -117.306 0.858149
      vertex 25 -117.667 1.47096
      vertex 25 -117.413 0.858149
    endloop
  endfacet
  facet normal -0.555126 -0.831766 0
    outer loop
      vertex 23.821 -117.179 1.47096
      vertex 24.3619 -117.54 2.13427
      vertex 23.821 -117.179 2.13427
    endloop
  endfacet
  facet normal -0.555126 -0.831766 -0
    outer loop
      vertex 24.3619 -117.54 2.13427
      vertex 23.821 -117.179 1.47096
      vertex 24.3619 -117.54 1.47096
    endloop
  endfacet
  facet normal 0.323775 0.215991 0.92115
    outer loop
      vertex 25.6678 -115.332 3.21612
      vertex 25.2345 -115.765 3.46995
      vertex 25.8726 -115.639 3.21612
    endloop
  endfacet
  facet normal -0.213857 -0.324098 0.921534
    outer loop
      vertex 24.7655 -116.235 3.46995
      vertex 24.6386 -116.873 3.21612
      vertex 24.8731 -116.306 3.46995
    endloop
  endfacet
  facet normal 0.700219 0.139462 0.700174
    outer loop
      vertex 26.4135 -116 2.74709
      vertex 25.8726 -115.639 3.21612
      vertex 25.9445 -116 3.21612
    endloop
  endfacet
  facet normal 0.980787 -0.195081 0
    outer loop
      vertex 26.5404 -116.638 2.13427
      vertex 26.6673 -116 1.47096
      vertex 26.6673 -116 2.13427
    endloop
  endfacet
  facet normal 0.980787 -0.195081 0
    outer loop
      vertex 26.6673 -116 1.47096
      vertex 26.5404 -116.638 2.13427
      vertex 26.5404 -116.638 1.47096
    endloop
  endfacet
  facet normal 0.515242 -0.769675 -0.376996
    outer loop
      vertex 26.179 -117.179 1.47096
      vertex 25.5409 -117.306 0.858149
      vertex 25.9995 -116.999 0.858149
    endloop
  endfacet
  facet normal 0.594157 0.396363 -0.69991
    outer loop
      vertex 25.8726 -115.639 0.38912
      vertex 25.6678 -115.332 0.38912
      vertex 25.9995 -115.001 0.858149
    endloop
  endfacet
  facet normal 0.323782 0.215996 -0.921146
    outer loop
      vertex 25.8726 -115.639 0.38912
      vertex 25.2345 -115.765 0.135283
      vertex 25.6678 -115.332 0.38912
    endloop
  endfacet
  facet normal 0.555126 -0.831766 0
    outer loop
      vertex 25.6381 -117.54 1.47096
      vertex 26.179 -117.179 2.13427
      vertex 25.6381 -117.54 2.13427
    endloop
  endfacet
  facet normal 0.555126 -0.831766 0
    outer loop
      vertex 26.179 -117.179 2.13427
      vertex 25.6381 -117.54 1.47096
      vertex 26.179 -117.179 1.47096
    endloop
  endfacet
  facet normal -0.1952 -0.980764 0
    outer loop
      vertex 24.3619 -117.54 1.47096
      vertex 25 -117.667 2.13427
      vertex 24.3619 -117.54 2.13427
    endloop
  endfacet
  facet normal -0.1952 -0.980764 -0
    outer loop
      vertex 25 -117.667 2.13427
      vertex 24.3619 -117.54 1.47096
      vertex 25 -117.667 1.47096
    endloop
  endfacet
  facet normal -0.397197 -0.593664 -0.699856
    outer loop
      vertex 24.6386 -116.873 0.38912
      vertex 24.0005 -116.999 0.858149
      vertex 24.3322 -116.668 0.38912
    endloop
  endfacet
  facet normal -0.179766 -0.908742 -0.376659
    outer loop
      vertex 25 -117.667 1.47096
      vertex 24.4591 -117.306 0.858149
      vertex 25 -117.413 0.858149
    endloop
  endfacet
  facet normal -0.270692 -0.270693 -0.923824
    outer loop
      vertex 24.3322 -116.668 0.38912
      vertex 9.76548 -101.235 0.135283
      vertex 24.7655 -116.235 0.135283
    endloop
  endfacet
  facet normal -0.270687 -0.270687 -0.923827
    outer loop
      vertex 9.76548 -101.235 0.135283
      vertex 24.3322 -116.668 0.38912
      vertex 9.33216 -101.668 0.38912
    endloop
  endfacet
  facet normal -0.500228 -0.50023 -0.706783
    outer loop
      vertex 24.0005 -116.999 0.858149
      vertex 9.33216 -101.668 0.38912
      vertex 24.3322 -116.668 0.38912
    endloop
  endfacet
  facet normal -0.500248 -0.500248 -0.706756
    outer loop
      vertex 9.33216 -101.668 0.38912
      vertex 24.0005 -116.999 0.858149
      vertex 9.00051 -101.999 0.858149
    endloop
  endfacet
  facet normal 0.769897 0.515058 0.376794
    outer loop
      vertex 26.179 -114.821 2.13427
      vertex 25.9995 -115.001 2.74709
      vertex 26.3059 -115.459 2.74709
    endloop
  endfacet
  facet normal 0.700164 0.139256 0.70027
    outer loop
      vertex 26.3059 -115.459 2.74709
      vertex 25.8726 -115.639 3.21612
      vertex 26.4135 -116 2.74709
    endloop
  endfacet
  facet normal 0.1376 -0.700403 0.700358
    outer loop
      vertex 25 -116.944 3.21612
      vertex 25 -117.413 2.74709
      vertex 25.3614 -116.873 3.21612
    endloop
  endfacet
  facet normal 0.700219 -0.139462 0.700174
    outer loop
      vertex 25.9445 -116 3.21612
      vertex 25.8726 -116.361 3.21612
      vertex 26.4135 -116 2.74709
    endloop
  endfacet
  facet normal 0.179766 -0.908744 0.376654
    outer loop
      vertex 25 -117.413 2.74709
      vertex 25 -117.667 2.13427
      vertex 25.5409 -117.306 2.74709
    endloop
  endfacet
  facet normal -0.397299 -0.593489 0.699946
    outer loop
      vertex 24.6386 -116.873 3.21612
      vertex 24.0005 -116.999 2.74709
      vertex 24.4591 -117.306 2.74709
    endloop
  endfacet
  facet normal -0.270686 -0.270686 0.923828
    outer loop
      vertex 9.76548 -101.235 3.46995
      vertex 24.3322 -116.668 3.21612
      vertex 24.7655 -116.235 3.46995
    endloop
  endfacet
  facet normal -0.27068 -0.270681 0.923831
    outer loop
      vertex 24.3322 -116.668 3.21612
      vertex 9.76548 -101.235 3.46995
      vertex 9.33216 -101.668 3.21612
    endloop
  endfacet
  facet normal -0.500229 -0.50023 0.706782
    outer loop
      vertex 9.33216 -101.668 3.21612
      vertex 24.0005 -116.999 2.74709
      vertex 24.3322 -116.668 3.21612
    endloop
  endfacet
  facet normal -0.500248 -0.500248 0.706755
    outer loop
      vertex 24.0005 -116.999 2.74709
      vertex 9.33216 -101.668 3.21612
      vertex 9.00051 -101.999 2.74709
    endloop
  endfacet
  facet normal 0.381586 0.076 -0.921204
    outer loop
      vertex 25.9445 -116 0.38912
      vertex 25.3317 -116 0.135283
      vertex 25.8726 -115.639 0.38912
    endloop
  endfacet
  facet normal 0.397197 -0.593664 -0.699856
    outer loop
      vertex 25.9995 -116.999 0.858149
      vertex 25.3614 -116.873 0.38912
      vertex 25.6678 -116.668 0.38912
    endloop
  endfacet
  facet normal 0.700164 0.139256 -0.70027
    outer loop
      vertex 26.4135 -116 0.858149
      vertex 25.8726 -115.639 0.38912
      vertex 26.3059 -115.459 0.858149
    endloop
  endfacet
  facet normal 0.908684 0.180729 -0.376338
    outer loop
      vertex 26.4135 -116 0.858149
      vertex 26.3059 -115.459 0.858149
      vertex 26.6673 -116 1.47096
    endloop
  endfacet
  facet normal 0.500229 0.500229 -0.706783
    outer loop
      vertex 25.6678 -115.332 0.38912
      vertex 11.4135 -100.415 0.858149
      vertex 25.9995 -115.001 0.858149
    endloop
  endfacet
  facet normal 0.500112 0.500122 -0.706942
    outer loop
      vertex 11.4135 -100.415 0.858149
      vertex 25.6678 -115.332 0.38912
      vertex 10.9445 -100.609 0.38912
    endloop
  endfacet
  facet normal 0.180896 -0.908896 0.375746
    outer loop
      vertex 25.5409 -117.306 2.74709
      vertex 25 -117.667 2.13427
      vertex 25.6381 -117.54 2.13427
    endloop
  endfacet
  facet normal 0.514413 -0.770764 0.375901
    outer loop
      vertex 26.179 -117.179 2.13427
      vertex 25.5409 -117.306 2.74709
      vertex 25.6381 -117.54 2.13427
    endloop
  endfacet
  facet normal 0.1952 -0.980764 0
    outer loop
      vertex 25 -117.667 1.47096
      vertex 25.6381 -117.54 2.13427
      vertex 25 -117.667 2.13427
    endloop
  endfacet
  facet normal 0.1952 -0.980764 0
    outer loop
      vertex 25.6381 -117.54 2.13427
      vertex 25 -117.667 1.47096
      vertex 25.6381 -117.54 1.47096
    endloop
  endfacet
  facet normal -0.21641 -0.323453 -0.921165
    outer loop
      vertex 24.6386 -116.873 0.38912
      vertex 24.3322 -116.668 0.38912
      vertex 24.7655 -116.235 0.135283
    endloop
  endfacet
  facet normal 0.323878 0.215619 -0.921201
    outer loop
      vertex 25.3064 -115.873 0.135283
      vertex 25.2345 -115.765 0.135283
      vertex 25.8726 -115.639 0.38912
    endloop
  endfacet
  facet normal 0.381577 0.0759982 0.921208
    outer loop
      vertex 25.8726 -115.639 3.21612
      vertex 25.3317 -116 3.46995
      vertex 25.9445 -116 3.21612
    endloop
  endfacet
  facet normal 0.593257 0.396886 0.700377
    outer loop
      vertex 25.9995 -115.001 2.74709
      vertex 25.8726 -115.639 3.21612
      vertex 26.3059 -115.459 2.74709
    endloop
  endfacet
  facet normal 0.594158 0.396363 0.699909
    outer loop
      vertex 25.9995 -115.001 2.74709
      vertex 25.6678 -115.332 3.21612
      vertex 25.8726 -115.639 3.21612
    endloop
  endfacet
  facet normal -0.216405 -0.323446 0.921169
    outer loop
      vertex 24.7655 -116.235 3.46995
      vertex 24.3322 -116.668 3.21612
      vertex 24.6386 -116.873 3.21612
    endloop
  endfacet
  facet normal -0.397197 -0.593664 0.699855
    outer loop
      vertex 24.3322 -116.668 3.21612
      vertex 24.0005 -116.999 2.74709
      vertex 24.6386 -116.873 3.21612
    endloop
  endfacet
  facet normal -0.077926 -0.380339 -0.921558
    outer loop
      vertex 25 -116.332 0.135283
      vertex 24.6386 -116.873 0.38912
      vertex 24.8731 -116.306 0.135283
    endloop
  endfacet
  facet normal -0.1376 -0.700402 -0.700359
    outer loop
      vertex 25 -117.413 0.858149
      vertex 24.6386 -116.873 0.38912
      vertex 25 -116.944 0.38912
    endloop
  endfacet
  facet normal 0.700218 0.139462 -0.700175
    outer loop
      vertex 25.9445 -116 0.38912
      vertex 25.8726 -115.639 0.38912
      vertex 26.4135 -116 0.858149
    endloop
  endfacet
  facet normal 0.323782 -0.215996 -0.921146
    outer loop
      vertex 25.6678 -116.668 0.38912
      vertex 25.2345 -116.235 0.135283
      vertex 25.8726 -116.361 0.38912
    endloop
  endfacet
  facet normal 0.0779241 -0.38033 0.921562
    outer loop
      vertex 25.1269 -116.306 3.46995
      vertex 25 -116.332 3.46995
      vertex 25.3614 -116.873 3.21612
    endloop
  endfacet
  facet normal 0.397197 -0.593664 0.699855
    outer loop
      vertex 25.6678 -116.668 3.21612
      vertex 25.3614 -116.873 3.21612
      vertex 25.9995 -116.999 2.74709
    endloop
  endfacet
  facet normal -0.138606 -0.700671 0.699892
    outer loop
      vertex 24.6386 -116.873 3.21612
      vertex 24.4591 -117.306 2.74709
      vertex 25 -117.413 2.74709
    endloop
  endfacet
  facet normal -0.179766 -0.908744 0.376654
    outer loop
      vertex 25 -117.413 2.74709
      vertex 24.4591 -117.306 2.74709
      vertex 25 -117.667 2.13427
    endloop
  endfacet
  facet normal -0.138606 -0.70067 -0.699893
    outer loop
      vertex 25 -117.413 0.858149
      vertex 24.4591 -117.306 0.858149
      vertex 24.6386 -116.873 0.38912
    endloop
  endfacet
  facet normal 0.1376 -0.700402 -0.700359
    outer loop
      vertex 25.3614 -116.873 0.38912
      vertex 25 -117.413 0.858149
      vertex 25 -116.944 0.38912
    endloop
  endfacet
  facet normal 0.381577 -0.0759982 0.921208
    outer loop
      vertex 25.9445 -116 3.21612
      vertex 25.3317 -116 3.46995
      vertex 25.8726 -116.361 3.21612
    endloop
  endfacet
  facet normal -0.0779241 -0.38033 0.921562
    outer loop
      vertex 24.8731 -116.306 3.46995
      vertex 24.6386 -116.873 3.21612
      vertex 25 -116.332 3.46995
    endloop
  endfacet
  facet normal 0.381568 0.0760131 0.92121
    outer loop
      vertex 25.8726 -115.639 3.21612
      vertex 25.3064 -115.873 3.46995
      vertex 25.3317 -116 3.46995
    endloop
  endfacet
  facet normal -0.213862 -0.324106 -0.921531
    outer loop
      vertex 24.8731 -116.306 0.135283
      vertex 24.6386 -116.873 0.38912
      vertex 24.7655 -116.235 0.135283
    endloop
  endfacet
  facet normal 0.700218 -0.139462 -0.700175
    outer loop
      vertex 26.4135 -116 0.858149
      vertex 25.8726 -116.361 0.38912
      vertex 25.9445 -116 0.38912
    endloop
  endfacet
  facet normal 0.700164 -0.139256 -0.70027
    outer loop
      vertex 26.3059 -116.541 0.858149
      vertex 25.8726 -116.361 0.38912
      vertex 26.4135 -116 0.858149
    endloop
  endfacet
  facet normal 0.213862 -0.324106 -0.921531
    outer loop
      vertex 25.3614 -116.873 0.38912
      vertex 25.1269 -116.306 0.135283
      vertex 25.2345 -116.235 0.135283
    endloop
  endfacet
  facet normal 0.381577 0.0760149 -0.921206
    outer loop
      vertex 25.3317 -116 0.135283
      vertex 25.3064 -115.873 0.135283
      vertex 25.8726 -115.639 0.38912
    endloop
  endfacet
  facet normal 0.138606 -0.700671 0.699892
    outer loop
      vertex 25.3614 -116.873 3.21612
      vertex 25 -117.413 2.74709
      vertex 25.5409 -117.306 2.74709
    endloop
  endfacet
  facet normal 0.700164 -0.139256 0.70027
    outer loop
      vertex 26.4135 -116 2.74709
      vertex 25.8726 -116.361 3.21612
      vertex 26.3059 -116.541 2.74709
    endloop
  endfacet
  facet normal -0.0750546 -0.382039 -0.921094
    outer loop
      vertex 25 -116.944 0.38912
      vertex 24.6386 -116.873 0.38912
      vertex 25 -116.332 0.135283
    endloop
  endfacet
  facet normal 0.0750546 -0.382039 -0.921094
    outer loop
      vertex 25.3614 -116.873 0.38912
      vertex 25 -116.944 0.38912
      vertex 25 -116.332 0.135283
    endloop
  endfacet
  facet normal 0.077926 -0.380339 -0.921558
    outer loop
      vertex 25.3614 -116.873 0.38912
      vertex 25 -116.332 0.135283
      vertex 25.1269 -116.306 0.135283
    endloop
  endfacet
  facet normal 0.593257 -0.396886 0.700377
    outer loop
      vertex 26.3059 -116.541 2.74709
      vertex 25.8726 -116.361 3.21612
      vertex 25.9995 -116.999 2.74709
    endloop
  endfacet
  facet normal 0.323871 -0.215614 0.921205
    outer loop
      vertex 25.3064 -116.127 3.46995
      vertex 25.2345 -116.235 3.46995
      vertex 25.8726 -116.361 3.21612
    endloop
  endfacet
  facet normal 0.323878 -0.215619 -0.921201
    outer loop
      vertex 25.8726 -116.361 0.38912
      vertex 25.2345 -116.235 0.135283
      vertex 25.3064 -116.127 0.135283
    endloop
  endfacet
  facet normal 0.381577 -0.0760149 -0.921206
    outer loop
      vertex 25.8726 -116.361 0.38912
      vertex 25.3064 -116.127 0.135283
      vertex 25.3317 -116 0.135283
    endloop
  endfacet
  facet normal 0.594158 -0.396363 0.699909
    outer loop
      vertex 25.8726 -116.361 3.21612
      vertex 25.6678 -116.668 3.21612
      vertex 25.9995 -116.999 2.74709
    endloop
  endfacet
  facet normal 0.213857 -0.324098 0.921534
    outer loop
      vertex 25.2345 -116.235 3.46995
      vertex 25.1269 -116.306 3.46995
      vertex 25.3614 -116.873 3.21612
    endloop
  endfacet
  facet normal 0.397299 -0.593489 0.699946
    outer loop
      vertex 25.9995 -116.999 2.74709
      vertex 25.3614 -116.873 3.21612
      vertex 25.5409 -117.306 2.74709
    endloop
  endfacet
  facet normal 0.515243 -0.769676 0.376991
    outer loop
      vertex 25.9995 -116.999 2.74709
      vertex 25.5409 -117.306 2.74709
      vertex 26.179 -117.179 2.13427
    endloop
  endfacet
  facet normal 0.323775 -0.215991 0.92115
    outer loop
      vertex 25.8726 -116.361 3.21612
      vertex 25.2345 -116.235 3.46995
      vertex 25.6678 -116.668 3.21612
    endloop
  endfacet
  facet normal 0.216405 -0.323446 0.921169
    outer loop
      vertex 25.6678 -116.668 3.21612
      vertex 25.2345 -116.235 3.46995
      vertex 25.3614 -116.873 3.21612
    endloop
  endfacet
endsolid OpenSCAD_Model
