solid OpenSCAD_Model
  facet normal 1 -0 0
    outer loop
      vertex 34 0 2.2
      vertex 34 8 0
      vertex 34 8 2.2
    endloop
  endfacet
  facet normal 1 0 0
    outer loop
      vertex 34 8 0
      vertex 34 0 2.2
      vertex 34 0 0
    endloop
  endfacet
  facet normal 0 0 1
    outer loop
      vertex 27 19 2.2
      vertex 31 19.9 2.2
      vertex 27 19.9 2.2
    endloop
  endfacet
  facet normal 0 0 1
    outer loop
      vertex 31 19.9 2.2
      vertex 27 19 2.2
      vertex 31 17.8 2.2
    endloop
  endfacet
  facet normal 0 0 1
    outer loop
      vertex 27 19 2.2
      vertex 5 17.8 2.2
      vertex 31 17.8 2.2
    endloop
  endfacet
  facet normal 0 0 1
    outer loop
      vertex 5 17.8 2.2
      vertex 0 19 2.2
      vertex 5 8 2.2
    endloop
  endfacet
  facet normal -0 0 1
    outer loop
      vertex 0 19 2.2
      vertex 5 17.8 2.2
      vertex 27 19 2.2
    endloop
  endfacet
  facet normal -0 0 1
    outer loop
      vertex 5 8 2.2
      vertex 34 0 2.2
      vertex 34 8 2.2
    endloop
  endfacet
  facet normal 0 0 1
    outer loop
      vertex 5 8 2.2
      vertex 0 0 2.2
      vertex 34 0 2.2
    endloop
  endfacet
  facet normal 0 0 1
    outer loop
      vertex 0 0 2.2
      vertex 5 8 2.2
      vertex 0 19 2.2
    endloop
  endfacet
  facet normal 0 0 -1
    outer loop
      vertex 34 0 0
      vertex 5 8 0
      vertex 34 8 0
    endloop
  endfacet
  facet normal 0 0 -1
    outer loop
      vertex 0 19 0
      vertex 5 8 0
      vertex 0 0 0
    endloop
  endfacet
  facet normal 0 0 -1
    outer loop
      vertex 0 0 0
      vertex 5 8 0
      vertex 34 0 0
    endloop
  endfacet
  facet normal 0 0 -1
    outer loop
      vertex 5 17.8 0
      vertex 31 19 0
      vertex 31 17.8 0
    endloop
  endfacet
  facet normal 0 0 -1
    outer loop
      vertex 5 17.8 0
      vertex 0 19 0
      vertex 31 19 0
    endloop
  endfacet
  facet normal 0 0 -1
    outer loop
      vertex 5 8 0
      vertex 0 19 0
      vertex 5 17.8 0
    endloop
  endfacet
  facet normal -1 0 0
    outer loop
      vertex 0 0 0
      vertex 0 19 2.2
      vertex 0 19 0
    endloop
  endfacet
  facet normal -1 -0 0
    outer loop
      vertex 0 19 2.2
      vertex 0 0 0
      vertex 0 0 2.2
    endloop
  endfacet
  facet normal 0 1 -0
    outer loop
      vertex 34 8 0
      vertex 5 8 2.2
      vertex 34 8 2.2
    endloop
  endfacet
  facet normal 0 1 0
    outer loop
      vertex 5 8 2.2
      vertex 34 8 0
      vertex 5 8 0
    endloop
  endfacet
  facet normal 0 -1 0
    outer loop
      vertex 0 0 0
      vertex 34 0 2.2
      vertex 0 0 2.2
    endloop
  endfacet
  facet normal 0 -1 -0
    outer loop
      vertex 34 0 2.2
      vertex 0 0 0
      vertex 34 0 0
    endloop
  endfacet
  facet normal 1 -0 0
    outer loop
      vertex 5 8 2.2
      vertex 5 17.8 0
      vertex 5 17.8 2.2
    endloop
  endfacet
  facet normal 1 0 0
    outer loop
      vertex 5 17.8 0
      vertex 5 8 2.2
      vertex 5 8 0
    endloop
  endfacet
  facet normal 0 1 0
    outer loop
      vertex 31 19 0.4
      vertex 31 19 0
      vertex 27 19 0.4
    endloop
  endfacet
  facet normal 0 1 -0
    outer loop
      vertex 27 19 0.4
      vertex 0 19 2.2
      vertex 27 19 2.2
    endloop
  endfacet
  facet normal 0 1 0
    outer loop
      vertex 0 19 0
      vertex 27 19 0.4
      vertex 31 19 0
    endloop
  endfacet
  facet normal 0 1 0
    outer loop
      vertex 27 19 0.4
      vertex 0 19 0
      vertex 0 19 2.2
    endloop
  endfacet
  facet normal 1 -0 0
    outer loop
      vertex 31 17.8 2.2
      vertex 31 19.9 1.3
      vertex 31 19.9 2.2
    endloop
  endfacet
  facet normal 1 0 0
    outer loop
      vertex 31 19.9 1.3
      vertex 31 17.8 2.2
      vertex 31 19 0.4
    endloop
  endfacet
  facet normal 1 0 0
    outer loop
      vertex 31 17.8 0
      vertex 31 19 0.4
      vertex 31 17.8 2.2
    endloop
  endfacet
  facet normal 1 0 0
    outer loop
      vertex 31 19 0.4
      vertex 31 17.8 0
      vertex 31 19 0
    endloop
  endfacet
  facet normal 0 -1 0
    outer loop
      vertex 5 17.8 0
      vertex 31 17.8 2.2
      vertex 5 17.8 2.2
    endloop
  endfacet
  facet normal 0 -1 -0
    outer loop
      vertex 31 17.8 2.2
      vertex 5 17.8 0
      vertex 31 17.8 0
    endloop
  endfacet
  facet normal -1 0 0
    outer loop
      vertex 27 19 2.2
      vertex 27 19.9 1.3
      vertex 27 19 0.4
    endloop
  endfacet
  facet normal -1 0 0
    outer loop
      vertex 27 19.9 1.3
      vertex 27 19 2.2
      vertex 27 19.9 2.2
    endloop
  endfacet
  facet normal 0 1 -0
    outer loop
      vertex 31 19.9 1.3
      vertex 27 19.9 2.2
      vertex 31 19.9 2.2
    endloop
  endfacet
  facet normal 0 1 0
    outer loop
      vertex 27 19.9 2.2
      vertex 31 19.9 1.3
      vertex 27 19.9 1.3
    endloop
  endfacet
  facet normal 0 0.707107 -0.707107
    outer loop
      vertex 31 19 0.4
      vertex 27 19.9 1.3
      vertex 31 19.9 1.3
    endloop
  endfacet
  facet normal 0 0.707107 -0.707107
    outer loop
      vertex 27 19.9 1.3
      vertex 31 19 0.4
      vertex 27 19 0.4
    endloop
  endfacet
endsolid OpenSCAD_Model
